MulatAwash-Italic.ufo
<glyph name="dollar" format="2">
  <advance width="752"/>
  <unicode hex="0024"/>
  <note>
dollar
</note>
  <outline>
    <contour>
      <point x="137" y="-191" type="line"/>
      <point x="178" y="-184" type="line"/>
      <point x="212" y="-120" type="line"/>
      <point x="304" y="-120"/>
      <point x="402" y="-88"/>
      <point x="469" y="-14" type="curve" smooth="yes"/>
      <point x="541" y="66"/>
      <point x="538" y="160"/>
      <point x="439" y="291" type="curve"/>
      <point x="579" y="545" type="line"/>
      <point x="623" y="536"/>
      <point x="649" y="512"/>
      <point x="655" y="473" type="curve"/>
      <point x="651" y="483"/>
      <point x="632" y="494"/>
      <point x="611" y="494" type="curve" smooth="yes"/>
      <point x="589" y="494"/>
      <point x="563" y="471"/>
      <point x="563" y="441" type="curve" smooth="yes"/>
      <point x="563" y="412"/>
      <point x="585" y="388"/>
      <point x="619" y="388" type="curve" smooth="yes"/>
      <point x="654" y="388"/>
      <point x="683" y="423"/>
      <point x="683" y="470" type="curve" smooth="yes"/>
      <point x="683" y="516"/>
      <point x="655" y="560"/>
      <point x="594" y="569" type="curve"/>
      <point x="633" y="643" type="line"/>
      <point x="595" y="636" type="line"/>
      <point x="561" y="573" type="line"/>
      <point x="471" y="573"/>
      <point x="399" y="546"/>
      <point x="345" y="492" type="curve" smooth="yes"/>
      <point x="315" y="463"/>
      <point x="301" y="428"/>
      <point x="301" y="386" type="curve" smooth="yes"/>
      <point x="301" y="344"/>
      <point x="325" y="293"/>
      <point x="373" y="235" type="curve"/>
      <point x="194" y="-92" type="line"/>
      <point x="140" y="-81"/>
      <point x="97" y="-60"/>
      <point x="64" y="-24" type="curve"/>
      <point x="53" y="-24" type="line"/>
      <point x="40" y="-38"/>
      <point x="33" y="-48"/>
      <point x="31" y="-53" type="curve"/>
      <point x="52" y="-81"/>
      <point x="102" y="-103"/>
      <point x="179" y="-117" type="curve"/>
    </contour>
    <contour>
      <point x="225" y="-96" type="curve"/>
      <point x="395" y="209" type="line"/>
      <point x="427" y="165"/>
      <point x="443" y="126"/>
      <point x="443" y="92" type="curve" smooth="yes"/>
      <point x="443" y="-16"/>
      <point x="335" y="-96"/>
    </contour>
    <contour>
      <point x="419" y="317" type="line"/>
      <point x="403" y="348"/>
      <point x="359" y="407"/>
      <point x="376" y="418" type="curve"/>
      <point x="376" y="493"/>
      <point x="455" y="552"/>
      <point x="532" y="552" type="curve" smooth="yes"/>
      <point x="549" y="550" type="line"/>
    </contour>
  </outline>
</glyph>
<glyph name="percent" format="2">
  <advance width="917"/>
  <unicode hex="0025"/>
  <note>
percent
</note>
  <outline>
    <contour>
      <point x="199" y="-86" type="line"/>
      <point x="244" y="-86" type="line"/>
      <point x="981" y="809" type="line"/>
      <point x="965" y="866"/>
      <point x="878" y="702"/>
      <point x="733" y="586" type="curve" smooth="yes"/>
      <point x="664" y="531"/>
      <point x="611" y="504"/>
      <point x="573" y="504" type="curve" smooth="yes"/>
      <point x="551" y="504"/>
      <point x="534" y="514"/>
      <point x="523" y="534" type="curve"/>
      <point x="535" y="545"/>
      <point x="548" y="560"/>
      <point x="561" y="579" type="curve" smooth="yes"/>
      <point x="622" y="662"/>
      <point x="652" y="738"/>
      <point x="652" y="807" type="curve" smooth="yes"/>
      <point x="652" y="865"/>
      <point x="623" y="894"/>
      <point x="563" y="894" type="curve" smooth="yes"/>
      <point x="484" y="894"/>
      <point x="385" y="802"/>
      <point x="337" y="692" type="curve" smooth="yes"/>
      <point x="320" y="654"/>
      <point x="311" y="618"/>
      <point x="311" y="583" type="curve" smooth="yes"/>
      <point x="311" y="510"/>
      <point x="340" y="473"/>
      <point x="398" y="473" type="curve" smooth="yes"/>
      <point x="431" y="473"/>
      <point x="465" y="486"/>
      <point x="500" y="514" type="curve"/>
      <point x="520" y="493"/>
      <point x="543" y="483"/>
      <point x="571" y="483" type="curve" smooth="yes"/>
      <point x="620" y="483"/>
      <point x="684" y="517"/>
      <point x="762" y="583" type="curve"/>
      <point x="571" y="348" type="line" smooth="yes"/>
      <point x="436" y="183"/>
      <point x="312" y="40"/>
      <point x="198" y="-80" type="curve"/>
    </contour>
    <contour>
      <point x="659" y="-20" type="curve" smooth="yes"/>
      <point x="720" y="-20"/>
      <point x="780" y="23"/>
      <point x="840" y="110" type="curve" smooth="yes"/>
      <point x="889" y="182"/>
      <point x="914" y="248"/>
      <point x="914" y="310" type="curve" smooth="yes"/>
      <point x="914" y="370"/>
      <point x="884" y="401"/>
      <point x="823" y="401" type="curve" smooth="yes"/>
      <point x="744" y="401"/>
      <point x="645" y="310"/>
      <point x="597" y="199" type="curve" smooth="yes"/>
      <point x="580" y="161"/>
      <point x="571" y="125"/>
      <point x="571" y="91" type="curve" smooth="yes"/>
      <point x="571" y="18"/>
      <point x="600" y="-20"/>
    </contour>
    <contour>
      <point x="680" y="6" type="curve" smooth="yes"/>
      <point x="652" y="6"/>
      <point x="638" y="23"/>
      <point x="638" y="59" type="curve" smooth="yes"/>
      <point x="638" y="96"/>
      <point x="652" y="143"/>
      <point x="680" y="202" type="curve" smooth="yes"/>
      <point x="728" y="303"/>
      <point x="792" y="362"/>
      <point x="837" y="362" type="curve" smooth="yes"/>
      <point x="867" y="362"/>
      <point x="882" y="344"/>
      <point x="882" y="310" type="curve" smooth="yes"/>
      <point x="882" y="265"/>
      <point x="841" y="147"/>
      <point x="806" y="103" type="curve" smooth="yes"/>
      <point x="788" y="80"/>
      <point x="776" y="64"/>
      <point x="766" y="54" type="curve" smooth="yes"/>
      <point x="748" y="33"/>
      <point x="706" y="6"/>
    </contour>
    <contour>
      <point x="421" y="499" type="curve" smooth="yes"/>
      <point x="392" y="499"/>
      <point x="378" y="517"/>
      <point x="378" y="553" type="curve" smooth="yes"/>
      <point x="378" y="589"/>
      <point x="392" y="636"/>
      <point x="420" y="694" type="curve" smooth="yes"/>
      <point x="468" y="795"/>
      <point x="532" y="855"/>
      <point x="576" y="855" type="curve" smooth="yes"/>
      <point x="580" y="855"/>
      <point x="585" y="854"/>
      <point x="590" y="853" type="curve" smooth="yes"/>
      <point x="611" y="847"/>
      <point x="621" y="829"/>
      <point x="621" y="799" type="curve" smooth="yes"/>
      <point x="621" y="769"/>
      <point x="610" y="727"/>
      <point x="588" y="675" type="curve" smooth="yes"/>
      <point x="572" y="639"/>
      <point x="558" y="611"/>
      <point x="544" y="591" type="curve"/>
      <point x="546" y="631"/>
      <point x="536" y="641"/>
      <point x="510" y="641" type="curve" smooth="yes"/>
      <point x="483" y="641"/>
      <point x="469" y="623"/>
      <point x="469" y="589" type="curve" smooth="yes"/>
      <point x="468" y="570"/>
      <point x="473" y="550"/>
      <point x="487" y="530" type="curve"/>
      <point x="462" y="510"/>
      <point x="440" y="499"/>
    </contour>
  </outline>
</glyph>
<glyph name="ampersand" format="2">
  <advance width="680"/>
  <unicode hex="0026"/>
  <note>
ampersand
</note>
  <outline>
    <contour>
      <point x="340" y="-10" type="curve" smooth="yes"/>
      <point x="422" y="-10"/>
      <point x="500" y="21"/>
      <point x="548" y="65" type="curve" smooth="yes"/>
      <point x="598" y="111"/>
      <point x="623" y="155"/>
      <point x="623" y="199" type="curve" smooth="yes"/>
      <point x="623" y="229"/>
      <point x="611" y="254"/>
      <point x="586" y="274" type="curve"/>
      <point x="591" y="274" type="line" smooth="yes"/>
      <point x="673" y="274"/>
      <point x="760" y="306"/>
      <point x="792" y="355" type="curve" smooth="yes"/>
      <point x="800" y="366"/>
      <point x="804" y="379"/>
      <point x="804" y="393" type="curve" smooth="yes"/>
      <point x="804" y="407"/>
      <point x="800" y="421"/>
      <point x="791" y="437" type="curve" smooth="yes"/>
      <point x="785" y="446"/>
      <point x="771" y="442"/>
      <point x="783" y="424" type="curve" smooth="yes"/>
      <point x="787" y="417"/>
      <point x="789" y="410"/>
      <point x="789" y="401" type="curve" smooth="yes"/>
      <point x="789" y="393"/>
      <point x="787" y="385"/>
      <point x="781" y="377" type="curve" smooth="yes"/>
      <point x="771" y="362"/>
      <point x="753" y="349"/>
      <point x="730" y="339" type="curve" smooth="yes"/>
      <point x="681" y="316"/>
      <point x="640" y="305"/>
      <point x="607" y="305" type="curve" smooth="yes"/>
      <point x="436" y="305" type="line" smooth="yes"/>
      <point x="342" y="305"/>
      <point x="277" y="270"/>
      <point x="262" y="225" type="curve" smooth="yes"/>
      <point x="259" y="218"/>
      <point x="257" y="208"/>
      <point x="257" y="195" type="curve" smooth="yes"/>
      <point x="257" y="183"/>
      <point x="263" y="169"/>
      <point x="275" y="151" type="curve" smooth="yes"/>
      <point x="291" y="122"/>
      <point x="319" y="98"/>
      <point x="360" y="76" type="curve" smooth="yes"/>
      <point x="364" y="74"/>
      <point x="367" y="76"/>
      <point x="368" y="81" type="curve" smooth="yes"/>
      <point x="369" y="88"/>
      <point x="366" y="93"/>
      <point x="360" y="97" type="curve" smooth="yes"/>
      <point x="317" y="119"/>
      <point x="296" y="144"/>
      <point x="296" y="172" type="curve" smooth="yes"/>
      <point x="296" y="199"/>
      <point x="308" y="221"/>
      <point x="332" y="238" type="curve" smooth="yes"/>
      <point x="373" y="266"/>
      <point x="419" y="268"/>
      <point x="445" y="268" type="curve" smooth="yes"/>
      <point x="471" y="268"/>
      <point x="513" y="267"/>
      <point x="547" y="241" type="curve" smooth="yes"/>
      <point x="564" y="228"/>
      <point x="572" y="211"/>
      <point x="572" y="192" type="curve" smooth="yes"/>
      <point x="572" y="108"/>
      <point x="465" y="2"/>
      <point x="340" y="2" type="curve" smooth="yes"/>
      <point x="269" y="2"/>
      <point x="223" y="33"/>
      <point x="202" y="95" type="curve" smooth="yes"/>
      <point x="195" y="117"/>
      <point x="192" y="138"/>
      <point x="192" y="161" type="curve" smooth="yes"/>
      <point x="192" y="201"/>
      <point x="203" y="243"/>
      <point x="227" y="285" type="curve" smooth="yes"/>
      <point x="264" y="350"/>
      <point x="319" y="388"/>
      <point x="390" y="399" type="curve"/>
      <point x="419" y="371"/>
      <point x="451" y="357"/>
      <point x="488" y="357" type="curve" smooth="yes"/>
      <point x="509" y="357"/>
      <point x="523" y="362"/>
      <point x="531" y="371" type="curve" smooth="yes"/>
      <point x="534" y="375"/>
      <point x="536" y="380"/>
      <point x="536" y="385" type="curve" smooth="yes"/>
      <point x="536" y="389"/>
      <point x="533" y="395"/>
      <point x="529" y="400" type="curve" smooth="yes"/>
      <point x="520" y="412"/>
      <point x="502" y="417"/>
      <point x="475" y="417" type="curve" smooth="yes"/>
      <point x="411" y="416" type="line"/>
      <point x="405" y="428"/>
      <point x="402" y="442"/>
      <point x="402" y="458" type="curve" smooth="yes"/>
      <point x="402" y="474"/>
      <point x="406" y="493"/>
      <point x="415" y="513" type="curve" smooth="yes"/>
      <point x="478" y="650"/>
      <point x="653" y="715"/>
      <point x="716" y="669" type="curve" smooth="yes"/>
      <point x="728" y="661"/>
      <point x="733" y="650"/>
      <point x="733" y="636" type="curve" smooth="yes"/>
      <point x="733" y="633"/>
      <point x="733" y="629"/>
      <point x="732" y="625" type="curve"/>
      <point x="730" y="633"/>
      <point x="713" y="642"/>
      <point x="698" y="642" type="curve" smooth="yes"/>
      <point x="675" y="642"/>
      <point x="655" y="624"/>
      <point x="655" y="598" type="curve" smooth="yes"/>
      <point x="655" y="572"/>
      <point x="673" y="553"/>
      <point x="702" y="553" type="curve" smooth="yes"/>
      <point x="731" y="553"/>
      <point x="758" y="586"/>
      <point x="758" y="624" type="curve" smooth="yes"/>
      <point x="758" y="682"/>
      <point x="705" y="708"/>
      <point x="638" y="708" type="curve" smooth="yes"/>
      <point x="403" y="708"/>
      <point x="342" y="556"/>
      <point x="342" y="497" type="curve" smooth="yes"/>
      <point x="342" y="419"/>
      <point x="273" y="389"/>
      <point x="246" y="376" type="curve" smooth="yes"/>
      <point x="179" y="343"/>
      <point x="134" y="295"/>
      <point x="111" y="235" type="curve" smooth="yes"/>
      <point x="103" y="212"/>
      <point x="99" y="187"/>
      <point x="99" y="160" type="curve" smooth="yes"/>
      <point x="99" y="133"/>
      <point x="109" y="105"/>
      <point x="129" y="76" type="curve" smooth="yes"/>
      <point x="170" y="19"/>
      <point x="241" y="-10"/>
    </contour>
    <contour>
      <point x="481" y="373" type="curve" smooth="yes"/>
      <point x="454" y="373"/>
      <point x="434" y="383"/>
      <point x="419" y="402" type="curve"/>
      <point x="429" y="403"/>
      <point x="438" y="403"/>
      <point x="448" y="403" type="curve" smooth="yes"/>
      <point x="495" y="403"/>
      <point x="519" y="397"/>
      <point x="519" y="385" type="curve" smooth="yes"/>
      <point x="519" y="377"/>
      <point x="506" y="373"/>
    </contour>
  </outline>
</glyph>
<glyph name="hyphen" format="2">
  <advance width="406"/>
  <unicode hex="002D"/>
  <note>
hyphen
</note>
  <outline>
    <contour>
      <point x="115" y="264" type="curve"/>
      <point x="220" y="276" type="line" smooth="yes"/>
      <point x="289" y="284"/>
      <point x="362" y="288"/>
      <point x="436" y="288" type="curve"/>
      <point x="450" y="289"/>
      <point x="459" y="297"/>
      <point x="461" y="308" type="curve"/>
      <point x="456" y="320"/>
      <point x="447" y="326"/>
      <point x="430" y="327" type="curve" smooth="yes"/>
      <point x="283" y="330"/>
      <point x="178" y="332"/>
      <point x="116" y="332" type="curve" smooth="yes"/>
      <point x="100" y="332"/>
      <point x="92" y="323"/>
      <point x="92" y="303" type="curve" smooth="yes"/>
      <point x="92" y="287"/>
      <point x="104" y="264"/>
    </contour>
  </outline>
</glyph>
<glyph name="period" format="2">
  <advance width="346"/>
  <unicode hex="002E"/>
  <note>
period
</note>
  <outline>
    <contour>
      <point x="175" y="49" type="curve" smooth="yes"/>
      <point x="203" y="49"/>
      <point x="245" y="69"/>
      <point x="245" y="124" type="curve" smooth="yes"/>
      <point x="245" y="139"/>
      <point x="228" y="166"/>
      <point x="195" y="166" type="curve" smooth="yes"/>
      <point x="162" y="166"/>
      <point x="125" y="141"/>
      <point x="125" y="90" type="curve" smooth="yes"/>
      <point x="125" y="75"/>
      <point x="142" y="49"/>
    </contour>
  </outline>
</glyph>
<glyph name="seven" format="2">
  <advance width="488"/>
  <unicode hex="0037"/>
  <note>
seven
</note>
  <outline>
    <contour>
      <point x="-8" y="0" type="line"/>
      <point x="95" y="10"/>
      <point x="51" y="7"/>
      <point x="107" y="82" type="curve" smooth="yes"/>
      <point x="212" y="223"/>
      <point x="322" y="344"/>
      <point x="433" y="460" type="curve" smooth="yes"/>
      <point x="541" y="574"/>
      <point x="608" y="644"/>
      <point x="632" y="672" type="curve"/>
      <point x="635" y="681" type="line"/>
      <point x="630" y="688" type="line"/>
      <point x="624" y="688"/>
      <point x="616" y="684"/>
      <point x="606" y="676" type="curve"/>
      <point x="541" y="684"/>
      <point x="467" y="694"/>
      <point x="403" y="689" type="curve" smooth="yes"/>
      <point x="360" y="686"/>
      <point x="321" y="676"/>
      <point x="293" y="656" type="curve" smooth="yes"/>
      <point x="267" y="637"/>
      <point x="236" y="595"/>
      <point x="203" y="528" type="curve"/>
      <point x="203" y="521" type="line"/>
      <point x="207" y="519" type="line"/>
      <point x="217" y="520"/>
      <point x="232" y="535"/>
      <point x="251" y="563" type="curve" smooth="yes"/>
      <point x="265" y="584"/>
      <point x="301" y="643"/>
      <point x="349" y="642" type="curve" smooth="yes"/>
      <point x="540" y="637" type="line"/>
      <point x="373" y="461" type="line" smooth="yes"/>
      <point x="204" y="282"/>
      <point x="131" y="195"/>
      <point x="47" y="95" type="curve" smooth="yes"/>
      <point x="-3" y="36"/>
      <point x="-14" y="19"/>
      <point x="-16" y="9" type="curve"/>
      <point x="-15" y="4" type="line"/>
    </contour>
  </outline>
</glyph>
<glyph name="colon" format="2">
  <advance width="438"/>
  <unicode hex="003A"/>
  <note>
colon
</note>
  <outline>
    <contour>
      <point x="169" y="0" type="curve" smooth="yes"/>
      <point x="202" y="0"/>
      <point x="240" y="25"/>
      <point x="240" y="76" type="curve" smooth="yes"/>
      <point x="240" y="91"/>
      <point x="222" y="118"/>
      <point x="189" y="118" type="curve" smooth="yes"/>
      <point x="162" y="118"/>
      <point x="120" y="97"/>
      <point x="120" y="42" type="curve" smooth="yes"/>
      <point x="120" y="27"/>
      <point x="137" y="0"/>
    </contour>
    <contour>
      <point x="327" y="321" type="curve" smooth="yes"/>
      <point x="354" y="321"/>
      <point x="397" y="341"/>
      <point x="397" y="396" type="curve" smooth="yes"/>
      <point x="397" y="411"/>
      <point x="379" y="438"/>
      <point x="347" y="438" type="curve" smooth="yes"/>
      <point x="314" y="438"/>
      <point x="282" y="411"/>
      <point x="278" y="379" type="curve" smooth="yes"/>
      <point x="272" y="347"/>
      <point x="294" y="321"/>
    </contour>
  </outline>
</glyph>
<glyph name="equal" format="2">
  <advance width="458"/>
  <unicode hex="003D"/>
  <note>
equal
</note>
  <outline>
    <contour>
      <point x="115" y="387" type="curve" smooth="yes"/>
      <point x="128" y="387"/>
      <point x="165" y="392"/>
      <point x="227" y="402" type="curve" smooth="yes"/>
      <point x="271" y="409"/>
      <point x="345" y="413"/>
      <point x="449" y="413" type="curve" smooth="yes"/>
      <point x="466" y="413"/>
      <point x="475" y="418"/>
      <point x="475" y="429" type="curve" smooth="yes"/>
      <point x="475" y="449"/>
      <point x="425" y="459"/>
      <point x="328" y="459" type="curve" smooth="yes"/>
      <point x="107" y="459" type="line" smooth="yes"/>
      <point x="90" y="459"/>
      <point x="82" y="450"/>
      <point x="82" y="431" type="curve" smooth="yes"/>
      <point x="82" y="402"/>
      <point x="92" y="387"/>
    </contour>
    <contour>
      <point x="115" y="237" type="curve" smooth="yes"/>
      <point x="128" y="237"/>
      <point x="165" y="242"/>
      <point x="227" y="252" type="curve" smooth="yes"/>
      <point x="271" y="259"/>
      <point x="345" y="263"/>
      <point x="449" y="263" type="curve" smooth="yes"/>
      <point x="466" y="263"/>
      <point x="475" y="268"/>
      <point x="475" y="279" type="curve" smooth="yes"/>
      <point x="475" y="299"/>
      <point x="425" y="309"/>
      <point x="328" y="309" type="curve" smooth="yes"/>
      <point x="107" y="309" type="line" smooth="yes"/>
      <point x="90" y="309"/>
      <point x="82" y="300"/>
      <point x="82" y="281" type="curve" smooth="yes"/>
      <point x="82" y="252"/>
      <point x="92" y="237"/>
    </contour>
  </outline>
</glyph>
<glyph name="B" format="2">
  <advance width="958"/>
  <unicode hex="0042"/>
  <note>
B
</note>
  <outline>
    <contour>
      <point x="188" y="-39" type="curve" smooth="yes"/>
      <point x="261" y="-39"/>
      <point x="331" y="-15"/>
      <point x="397" y="34" type="curve"/>
      <point x="470" y="1"/>
      <point x="558" y="-22"/>
      <point x="663" y="-35" type="curve" smooth="yes"/>
      <point x="679" y="-37"/>
      <point x="695" y="-38"/>
      <point x="712" y="-38" type="curve" smooth="yes"/>
      <point x="757" y="-38"/>
      <point x="804" y="-30"/>
      <point x="852" y="-15" type="curve" smooth="yes"/>
      <point x="917" y="6"/>
      <point x="968" y="39"/>
      <point x="1007" y="86" type="curve" smooth="yes"/>
      <point x="1034" y="119"/>
      <point x="1048" y="154"/>
      <point x="1048" y="192" type="curve" smooth="yes"/>
      <point x="1048" y="249"/>
      <point x="1022" y="294"/>
      <point x="970" y="328" type="curve" smooth="yes"/>
      <point x="933" y="352"/>
      <point x="894" y="371"/>
      <point x="851" y="384" type="curve"/>
      <point x="939" y="388"/>
      <point x="1037" y="421"/>
      <point x="1076" y="488" type="curve" smooth="yes"/>
      <point x="1091" y="513"/>
      <point x="1098" y="539"/>
      <point x="1098" y="564" type="curve" smooth="yes"/>
      <point x="1098" y="589"/>
      <point x="1087" y="613"/>
      <point x="1066" y="637" type="curve" smooth="yes"/>
      <point x="1026" y="680"/>
      <point x="961" y="714"/>
      <point x="870" y="737" type="curve"/>
      <point x="882" y="768"/>
      <point x="933" y="784"/>
      <point x="912" y="784" type="curve"/>
      <point x="906" y="790"/>
      <point x="870" y="776"/>
      <point x="834" y="745" type="curve"/>
      <point x="765" y="760"/>
      <point x="698" y="767"/>
      <point x="632" y="767" type="curve" smooth="yes"/>
      <point x="565" y="767"/>
      <point x="501" y="763"/>
      <point x="440" y="754" type="curve" smooth="yes"/>
      <point x="313" y="736"/>
      <point x="217" y="690"/>
      <point x="152" y="617" type="curve" smooth="yes"/>
      <point x="111" y="572"/>
      <point x="91" y="527"/>
      <point x="91" y="481" type="curve" smooth="yes"/>
      <point x="91" y="414"/>
      <point x="126" y="368"/>
      <point x="197" y="343" type="curve"/>
      <point x="249" y="334" type="line"/>
      <point x="276" y="334"/>
      <point x="304" y="341"/>
      <point x="331" y="356" type="curve" smooth="yes"/>
      <point x="376" y="381"/>
      <point x="402" y="418"/>
      <point x="409" y="467" type="curve" smooth="yes"/>
      <point x="409" y="468" type="line" smooth="yes"/>
      <point x="408" y="477"/>
      <point x="405" y="481"/>
      <point x="398" y="482" type="curve" smooth="yes"/>
      <point x="384" y="482"/>
      <point x="390" y="465"/>
      <point x="378" y="440" type="curve" smooth="yes"/>
      <point x="371" y="426"/>
      <point x="359" y="412"/>
      <point x="344" y="397" type="curve" smooth="yes"/>
      <point x="302" y="357"/>
      <point x="252" y="354"/>
      <point x="207" y="367" type="curve" smooth="yes"/>
      <point x="160" y="382"/>
      <point x="136" y="413"/>
      <point x="136" y="462" type="curve" smooth="yes"/>
      <point x="136" y="499"/>
      <point x="153" y="537"/>
      <point x="187" y="578" type="curve" smooth="yes"/>
      <point x="243" y="645"/>
      <point x="323" y="690"/>
      <point x="427" y="712" type="curve" smooth="yes"/>
      <point x="503" y="729"/>
      <point x="573" y="737"/>
      <point x="636" y="737" type="curve" smooth="yes"/>
      <point x="699" y="737"/>
      <point x="757" y="732"/>
      <point x="810" y="723" type="curve"/>
      <point x="753" y="658" type="line" smooth="yes"/>
      <point x="677" y="574"/>
      <point x="598" y="440"/>
      <point x="551" y="342" type="curve" smooth="yes"/>
      <point x="503" y="244"/>
      <point x="436" y="129"/>
      <point x="377" y="72" type="curve"/>
      <point x="333" y="94"/>
      <point x="274" y="130"/>
      <point x="219" y="150" type="curve" smooth="yes"/>
      <point x="196" y="158"/>
      <point x="171" y="162"/>
      <point x="143" y="162" type="curve" smooth="yes"/>
      <point x="100" y="162"/>
      <point x="67" y="149"/>
      <point x="43" y="122" type="curve" smooth="yes"/>
      <point x="28" y="105"/>
      <point x="20" y="88"/>
      <point x="20" y="73" type="curve" smooth="yes"/>
      <point x="20" y="58"/>
      <point x="22" y="44"/>
      <point x="27" y="33" type="curve" smooth="yes"/>
      <point x="48" y="-15"/>
      <point x="101" y="-39"/>
    </contour>
    <contour>
      <point x="179" y="-8" type="curve" smooth="yes"/>
      <point x="132" y="-8"/>
      <point x="102" y="7"/>
      <point x="87" y="37" type="curve" smooth="yes"/>
      <point x="68" y="75"/>
      <point x="90" y="131"/>
      <point x="146" y="131" type="curve" smooth="yes"/>
      <point x="166" y="131"/>
      <point x="186" y="127"/>
      <point x="207" y="120" type="curve" smooth="yes"/>
      <point x="228" y="113"/>
      <point x="277" y="90"/>
      <point x="355" y="53" type="curve"/>
      <point x="301" y="12"/>
      <point x="242" y="-8"/>
    </contour>
    <contour>
      <point x="698" y="-10" type="curve" smooth="yes"/>
      <point x="687" y="-10"/>
      <point x="675" y="-9"/>
      <point x="662" y="-8" type="curve" smooth="yes"/>
      <point x="575" y="1"/>
      <point x="494" y="21"/>
      <point x="419" y="52" type="curve"/>
      <point x="457" y="88" type="line"/>
      <point x="506" y="141"/>
      <point x="577" y="247"/>
      <point x="668" y="404" type="curve" smooth="yes"/>
      <point x="759" y="561"/>
      <point x="823" y="663"/>
      <point x="858" y="712" type="curve"/>
      <point x="975" y="685"/>
      <point x="1034" y="640"/>
      <point x="1034" y="577" type="curve" smooth="yes"/>
      <point x="1034" y="548"/>
      <point x="1019" y="516"/>
      <point x="989" y="483" type="curve" smooth="yes"/>
      <point x="952" y="442"/>
      <point x="891" y="413"/>
      <point x="854" y="413" type="curve" smooth="yes"/>
      <point x="811" y="412"/>
      <point x="763" y="418"/>
      <point x="729" y="418" type="curve" smooth="yes"/>
      <point x="710" y="417"/>
      <point x="700" y="411"/>
      <point x="700" y="398" type="curve"/>
      <point x="711" y="373"/>
      <point x="808" y="362"/>
      <point x="886" y="325" type="curve" smooth="yes"/>
      <point x="944" y="297"/>
      <point x="973" y="256"/>
      <point x="973" y="201" type="curve" smooth="yes"/>
      <point x="973" y="148"/>
      <point x="945" y="99"/>
      <point x="888" y="54" type="curve" smooth="yes"/>
      <point x="836" y="11"/>
      <point x="773" y="-10"/>
    </contour>
  </outline>
</glyph>
<glyph name="M" format="2">
  <advance width="1316"/>
  <unicode hex="004D"/>
  <note>
M
</note>
  <outline>
    <contour>
      <point x="1360" y="-114" type="curve" smooth="yes"/>
      <point x="1390" y="-114"/>
      <point x="1396" y="-110"/>
      <point x="1396" y="-102" type="curve" smooth="yes"/>
      <point x="1396" y="-100"/>
      <point x="1393" y="-98"/>
      <point x="1367" y="-98" type="curve" smooth="yes"/>
      <point x="1278" y="-98"/>
      <point x="1263" y="-38"/>
      <point x="1263" y="42" type="curve" smooth="yes"/>
      <point x="1263" y="73"/>
      <point x="1274" y="132"/>
      <point x="1304" y="217" type="curve" smooth="yes"/>
      <point x="1362" y="383"/>
      <point x="1456" y="517"/>
      <point x="1456" y="609" type="curve" smooth="yes"/>
      <point x="1456" y="641"/>
      <point x="1445" y="677"/>
      <point x="1403" y="677" type="curve" smooth="yes"/>
      <point x="1368" y="677"/>
      <point x="1310" y="645"/>
      <point x="1237" y="576" type="curve" smooth="yes"/>
      <point x="1139" y="484"/>
      <point x="1032" y="348"/>
      <point x="930" y="185" type="curve"/>
      <point x="933" y="169" type="line"/>
      <point x="1015" y="398"/>
      <point x="1044" y="491"/>
      <point x="1057" y="609" type="curve" smooth="yes"/>
      <point x="1062" y="658"/>
      <point x="1034" y="696"/>
      <point x="987" y="702" type="curve" smooth="yes"/>
      <point x="930" y="710"/>
      <point x="865" y="683"/>
      <point x="819" y="625" type="curve" smooth="yes"/>
      <point x="744" y="530"/>
      <point x="690" y="439"/>
      <point x="622" y="323" type="curve"/>
      <point x="628" y="316" type="line"/>
      <point x="667" y="444"/>
      <point x="701" y="548"/>
      <point x="702" y="628" type="curve" smooth="yes"/>
      <point x="703" y="751"/>
      <point x="648" y="812"/>
      <point x="535" y="812" type="curve" smooth="yes"/>
      <point x="312" y="812"/>
      <point x="20" y="556"/>
      <point x="20" y="333" type="curve" smooth="yes"/>
      <point x="20" y="201"/>
      <point x="108" y="116"/>
      <point x="212" y="116" type="curve" smooth="yes"/>
      <point x="347" y="116"/>
      <point x="466" y="247"/>
      <point x="466" y="346" type="curve" smooth="yes"/>
      <point x="466" y="402"/>
      <point x="442" y="457"/>
      <point x="378" y="449" type="curve" smooth="yes"/>
      <point x="354" y="446"/>
      <point x="345" y="441"/>
      <point x="348" y="432" type="curve" smooth="yes"/>
      <point x="349" y="429"/>
      <point x="360" y="426"/>
      <point x="368" y="427" type="curve" smooth="yes"/>
      <point x="410" y="433"/>
      <point x="433" y="404"/>
      <point x="433" y="358" type="curve" smooth="yes"/>
      <point x="433" y="265"/>
      <point x="330" y="138"/>
      <point x="221" y="138" type="curve" smooth="yes"/>
      <point x="135" y="138"/>
      <point x="74" y="211"/>
      <point x="74" y="323" type="curve" smooth="yes"/>
      <point x="74" y="508"/>
      <point x="343" y="785"/>
      <point x="524" y="790" type="curve" smooth="yes"/>
      <point x="598" y="792"/>
      <point x="646" y="744"/>
      <point x="646" y="649" type="curve" smooth="yes"/>
      <point x="646" y="569"/>
      <point x="612" y="442"/>
      <point x="544" y="267" type="curve" smooth="yes"/>
      <point x="505" y="167"/>
      <point x="463" y="78"/>
      <point x="398" y="-42" type="curve" smooth="yes"/>
      <point x="391" y="-55"/>
      <point x="402" y="-65"/>
      <point x="424" y="-65" type="curve" smooth="yes"/>
      <point x="449" y="-65"/>
      <point x="477" y="-22"/>
      <point x="539" y="94" type="curve" smooth="yes"/>
      <point x="587" y="184"/>
      <point x="768" y="513"/>
      <point x="841" y="605" type="curve" smooth="yes"/>
      <point x="881" y="654"/>
      <point x="929" y="680"/>
      <point x="968" y="673" type="curve" smooth="yes"/>
      <point x="997" y="668"/>
      <point x="1008" y="643"/>
      <point x="1001" y="601" type="curve" smooth="yes"/>
      <point x="986" y="513"/>
      <point x="948" y="360"/>
      <point x="924" y="291" type="curve" smooth="yes"/>
      <point x="871" y="139"/>
      <point x="839" y="93"/>
      <point x="807" y="31" type="curve" smooth="yes"/>
      <point x="782" y="-16"/>
      <point x="786" y="-34"/>
      <point x="820" y="-34" type="curve" smooth="yes"/>
      <point x="844" y="-34"/>
      <point x="861" y="-12"/>
      <point x="881" y="20" type="curve" smooth="yes"/>
      <point x="929" y="97"/>
      <point x="962" y="172"/>
      <point x="1034" y="277" type="curve" smooth="yes"/>
      <point x="1104" y="378"/>
      <point x="1190" y="490"/>
      <point x="1254" y="557" type="curve" smooth="yes"/>
      <point x="1298" y="603"/>
      <point x="1335" y="628"/>
      <point x="1360" y="628" type="curve" smooth="yes"/>
      <point x="1379" y="628"/>
      <point x="1388" y="617"/>
      <point x="1388" y="595" type="curve" smooth="yes"/>
      <point x="1388" y="537"/>
      <point x="1281" y="322"/>
      <point x="1260" y="272" type="curve" smooth="yes"/>
      <point x="1240" y="224"/>
      <point x="1202" y="119"/>
      <point x="1202" y="48" type="curve" smooth="yes"/>
      <point x="1202" y="-49"/>
      <point x="1254" y="-114"/>
    </contour>
  </outline>
</glyph>
<glyph name="V" format="2">
  <advance width="940"/>
  <unicode hex="0056"/>
  <note>
V
</note>
  <outline>
    <contour>
      <point x="511" y="-62"/>
      <point x="530" y="-88"/>
      <point x="561" y="-94" type="curve" smooth="yes"/>
      <point x="646" y="-110"/>
      <point x="819" y="25"/>
      <point x="919" y="149" type="curve" smooth="yes"/>
      <point x="990" y="237"/>
      <point x="1080" y="381"/>
      <point x="1080" y="485" type="curve" smooth="yes"/>
      <point x="1080" y="512"/>
      <point x="1074" y="535"/>
      <point x="1061" y="554" type="curve" smooth="yes"/>
      <point x="1038" y="589"/>
      <point x="1013" y="616"/>
      <point x="981" y="619" type="curve" smooth="yes"/>
      <point x="932" y="616"/>
      <point x="948" y="573"/>
      <point x="998" y="588" type="curve" smooth="yes"/>
      <point x="1008" y="591"/>
      <point x="1028" y="549"/>
      <point x="1028" y="503" type="curve" smooth="yes"/>
      <point x="1028" y="455"/>
      <point x="1015" y="402"/>
      <point x="988" y="345" type="curve" smooth="yes"/>
      <point x="947" y="255"/>
      <point x="890" y="172"/>
      <point x="817" y="97" type="curve" smooth="yes"/>
      <point x="714" y="-10"/>
      <point x="641" y="-64"/>
      <point x="600" y="-64" type="curve" smooth="yes"/>
      <point x="579" y="-64"/>
      <point x="569" y="-49"/>
      <point x="569" y="-18" type="curve" smooth="yes"/>
      <point x="569" y="23"/>
      <point x="586" y="95"/>
      <point x="621" y="200" type="curve" smooth="yes"/>
      <point x="644" y="271"/>
      <point x="671" y="337"/>
      <point x="701" y="398" type="curve" smooth="yes"/>
      <point x="749" y="497"/>
      <point x="773" y="579"/>
      <point x="773" y="646" type="curve" smooth="yes"/>
      <point x="773" y="737"/>
      <point x="741" y="796"/>
      <point x="676" y="824" type="curve" smooth="yes"/>
      <point x="639" y="838"/>
      <point x="599" y="845"/>
      <point x="554" y="845" type="curve" smooth="yes"/>
      <point x="509" y="845"/>
      <point x="462" y="835"/>
      <point x="411" y="816" type="curve" smooth="yes"/>
      <point x="209" y="741"/>
      <point x="20" y="566"/>
      <point x="20" y="365" type="curve" smooth="yes"/>
      <point x="20" y="248"/>
      <point x="107" y="135"/>
      <point x="225" y="135" type="curve" smooth="yes"/>
      <point x="313" y="135"/>
      <point x="412" y="190"/>
      <point x="474" y="272" type="curve" smooth="yes"/>
      <point x="526" y="341"/>
      <point x="543" y="437"/>
      <point x="481" y="485" type="curve" smooth="yes"/>
      <point x="442" y="513"/>
      <point x="364" y="502"/>
      <point x="364" y="473" type="curve" smooth="yes"/>
      <point x="364" y="458"/>
      <point x="408" y="477"/>
      <point x="421" y="477" type="curve" smooth="yes"/>
      <point x="446" y="477"/>
      <point x="476" y="452"/>
      <point x="476" y="392" type="curve" smooth="yes"/>
      <point x="476" y="281"/>
      <point x="357" y="161"/>
      <point x="245" y="161" type="curve" smooth="yes"/>
      <point x="137" y="161"/>
      <point x="77" y="244"/>
      <point x="77" y="342" type="curve" smooth="yes"/>
      <point x="77" y="417"/>
      <point x="111" y="516"/>
      <point x="180" y="601" type="curve" smooth="yes"/>
      <point x="268" y="708"/>
      <point x="433" y="820"/>
      <point x="568" y="820" type="curve" smooth="yes"/>
      <point x="639" y="820"/>
      <point x="705" y="802"/>
      <point x="713" y="732" type="curve" smooth="yes"/>
      <point x="718" y="699"/>
      <point x="714" y="664"/>
      <point x="706" y="628" type="curve" smooth="yes"/>
      <point x="691" y="557"/>
      <point x="667" y="485"/>
      <point x="635" y="410" type="curve" smooth="yes"/>
      <point x="552" y="213"/>
      <point x="511" y="73"/>
      <point x="511" y="-9" type="curve" smooth="yes"/>
    </contour>
  </outline>
</glyph>
<glyph name="h" format="2">
  <advance width="507"/>
  <unicode hex="0068"/>
  <note>
h
</note>
  <anchor x="462" y="514" name="top"/>
  <outline>
    <contour>
      <point x="19" y="-13" type="curve"/>
      <point x="61" y="11"/>
      <point x="72" y="-21"/>
      <point x="96" y="19" type="curve" smooth="yes"/>
      <point x="101" y="29"/>
      <point x="105" y="40"/>
      <point x="110" y="50" type="curve" smooth="yes"/>
      <point x="129" y="90"/>
      <point x="144" y="128"/>
      <point x="170" y="162" type="curve" smooth="yes"/>
      <point x="220" y="227"/>
      <point x="288" y="279"/>
      <point x="335" y="316" type="curve" smooth="yes"/>
      <point x="498" y="444"/>
      <point x="540" y="448"/>
      <point x="487" y="345" type="curve" smooth="yes"/>
      <point x="439" y="252"/>
      <point x="381" y="124"/>
      <point x="373" y="73" type="curve" smooth="yes"/>
      <point x="361" y="1"/>
      <point x="460" y="-64"/>
      <point x="552" y="53" type="curve" smooth="yes"/>
      <point x="585" y="95"/>
      <point x="625" y="148"/>
      <point x="681" y="259" type="curve" smooth="yes"/>
      <point x="702" y="300"/>
      <point x="678" y="306"/>
      <point x="660" y="272" type="curve" smooth="yes"/>
      <point x="571" y="99"/>
      <point x="511" y="25"/>
      <point x="460" y="25" type="curve" smooth="yes"/>
      <point x="441" y="25"/>
      <point x="416" y="41"/>
      <point x="416" y="67" type="curve" smooth="yes"/>
      <point x="416" y="113"/>
      <point x="454" y="196"/>
      <point x="519" y="316" type="curve" smooth="yes"/>
      <point x="546" y="367"/>
      <point x="579" y="425"/>
      <point x="616" y="490" type="curve"/>
      <point x="611" y="492"/>
      <point x="605" y="493"/>
      <point x="599" y="493" type="curve" smooth="yes"/>
      <point x="549" y="493"/>
      <point x="423" y="418"/>
      <point x="342" y="353" type="curve" smooth="yes"/>
      <point x="298" y="318"/>
      <point x="205" y="258"/>
      <point x="162" y="189" type="curve"/>
      <point x="164" y="182" type="line"/>
      <point x="197" y="250"/>
      <point x="228" y="307"/>
      <point x="254.413" y="352.425" type="curve" smooth="yes"/>
      <point x="443" y="670"/>
      <point x="272" y="376"/>
      <point x="456" y="696" type="curve" smooth="yes"/>
      <point x="484" y="744"/>
      <point x="509" y="800"/>
      <point x="539" y="829" type="curve"/>
      <point x="508" y="819"/>
      <point x="492" y="829"/>
      <point x="477" y="820" type="curve" smooth="yes"/>
      <point x="456" y="808"/>
      <point x="448" y="785"/>
      <point x="431" y="755" type="curve" smooth="yes"/>
      <point x="378" y="658"/>
      <point x="245" y="420"/>
      <point x="227" y="387" type="curve" smooth="yes"/>
      <point x="199" y="338"/>
      <point x="161" y="270"/>
      <point x="120" y="184" type="curve" smooth="yes"/>
      <point x="96" y="132"/>
      <point x="74" y="90"/>
      <point x="58" y="56" type="curve" smooth="yes"/>
      <point x="44" y="25"/>
      <point x="27" y="2"/>
    </contour>
  </outline>
</glyph>
<glyph name="p" format="2">
  <advance width="478"/>
  <unicode hex="0070"/>
  <note>
p
</note>
  <outline>
    <contour>
      <point x="-125" y="-364" type="curve"/>
      <point x="-106" y="-352"/>
      <point x="-71" y="-365"/>
      <point x="-63" y="-357" type="curve" smooth="yes"/>
      <point x="-51" y="-344"/>
      <point x="-45" y="-326"/>
      <point x="-30" y="-294" type="curve"/>
      <point x="111" y="19" type="line"/>
      <point x="145" y="1"/>
      <point x="176" y="-8"/>
      <point x="204" y="-8" type="curve" smooth="yes"/>
      <point x="233" y="-8"/>
      <point x="258" y="-5"/>
      <point x="280" y="1" type="curve" smooth="yes"/>
      <point x="406" y="40"/>
      <point x="497" y="159"/>
      <point x="536" y="275" type="curve" smooth="yes"/>
      <point x="550" y="318"/>
      <point x="558" y="361"/>
      <point x="558" y="400" type="curve" smooth="yes"/>
      <point x="558" y="465"/>
      <point x="532" y="504"/>
      <point x="483" y="517" type="curve" smooth="yes"/>
      <point x="475" y="519"/>
      <point x="468" y="520"/>
      <point x="460" y="520" type="curve" smooth="yes"/>
      <point x="433" y="520"/>
      <point x="404" y="509"/>
      <point x="375" y="481" type="curve" smooth="yes"/>
      <point x="330" y="438"/>
      <point x="292" y="390"/>
      <point x="244" y="313" type="curve" smooth="yes"/>
      <point x="214" y="265" type="line"/>
      <point x="242" y="340"/>
      <point x="262" y="455"/>
      <point x="256" y="473" type="curve" smooth="yes"/>
      <point x="252" y="485"/>
      <point x="214" y="477"/>
      <point x="196" y="494" type="curve"/>
      <point x="206" y="478"/>
      <point x="208" y="394"/>
      <point x="180" y="303" type="curve" smooth="yes"/>
      <point x="151" y="210"/>
      <point x="40" y="-56"/>
      <point x="-48" y="-222" type="curve"/>
      <point x="-84" y="-296"/>
      <point x="-77" y="-276"/>
    </contour>
    <contour>
      <point x="177" y="20" type="curve" smooth="yes"/>
      <point x="154" y="22"/>
      <point x="136" y="28"/>
      <point x="123" y="41" type="curve"/>
      <point x="210" y="203"/>
      <point x="276" y="317"/>
      <point x="323" y="382" type="curve" smooth="yes"/>
      <point x="369" y="447"/>
      <point x="410" y="479"/>
      <point x="445" y="479" type="curve" smooth="yes"/>
      <point x="473" y="479"/>
      <point x="509" y="466"/>
      <point x="509" y="414" type="curve" smooth="yes"/>
      <point x="509" y="334"/>
      <point x="461" y="140"/>
      <point x="295" y="42" type="curve" smooth="yes"/>
      <point x="247" y="14"/>
      <point x="200" y="18"/>
    </contour>
  </outline>
</glyph>
<glyph name="q" format="2">
  <advance width="603"/>
  <unicode hex="0071"/>
  <note>
q
</note>
  <outline>
    <contour>
      <point x="212" y="-367" type="curve" smooth="yes"/>
      <point x="225" y="-349"/>
      <point x="233" y="-326"/>
      <point x="248" y="-294" type="curve"/>
      <point x="496" y="251" type="line"/>
      <point x="527" y="314"/>
      <point x="556" y="377"/>
      <point x="577" y="398" type="curve"/>
      <point x="555" y="392"/>
      <point x="551" y="401"/>
      <point x="528" y="399" type="curve" smooth="yes"/>
      <point x="499" y="396"/>
      <point x="493" y="382"/>
      <point x="455" y="308" type="curve" smooth="yes"/>
      <point x="358" y="124"/>
      <point x="276" y="32"/>
      <point x="216" y="32" type="curve" smooth="yes"/>
      <point x="169" y="32"/>
      <point x="161" y="68"/>
      <point x="161" y="117" type="curve" smooth="yes"/>
      <point x="161" y="220"/>
      <point x="237" y="325"/>
      <point x="293" y="387" type="curve" smooth="yes"/>
      <point x="354" y="455"/>
      <point x="454" y="489"/>
      <point x="497" y="489" type="curve" smooth="yes"/>
      <point x="534" y="489"/>
      <point x="543" y="463"/>
      <point x="569" y="435" type="curve" smooth="yes"/>
      <point x="587" y="416"/>
      <point x="605" y="457"/>
      <point x="585" y="479" type="curve" smooth="yes"/>
      <point x="553" y="511"/>
      <point x="514" y="527"/>
      <point x="468" y="527" type="curve" smooth="yes"/>
      <point x="417" y="527"/>
      <point x="314" y="499"/>
      <point x="237" y="410" type="curve" smooth="yes"/>
      <point x="152" y="309"/>
      <point x="110" y="209"/>
      <point x="110" y="111" type="curve" smooth="yes"/>
      <point x="110" y="37"/>
      <point x="148" y="-12"/>
      <point x="198" y="-12" type="curve" smooth="yes"/>
      <point x="254.763" y="-12"/>
      <point x="322.063" y="50.258"/>
      <point x="399.898" y="173.836" type="curve"/>
      <point x="359.836" y="68.141"/>
      <point x="294.608" y="-90.694"/>
      <point x="225" y="-222" type="curve" smooth="yes"/>
      <point x="189" y="-296"/>
      <point x="162" y="-351"/>
      <point x="148" y="-364" type="curve"/>
      <point x="170" y="-361"/>
      <point x="202" y="-381"/>
    </contour>
  </outline>
</glyph>
<glyph name="braceright" format="2">
  <advance width="682"/>
  <unicode hex="007D"/>
  <note>
braceright
</note>
  <outline>
    <contour>
      <point x="178" y="-136" type="curve" smooth="yes"/>
      <point x="184" y="-136" type="line" smooth="yes"/>
      <point x="263" y="-136"/>
      <point x="321" y="-123"/>
      <point x="360" y="-95" type="curve" smooth="yes"/>
      <point x="418" y="-55"/>
      <point x="455" y="37"/>
      <point x="473" y="112" type="curve" smooth="yes"/>
      <point x="495" y="215"/>
      <point x="527" y="282"/>
      <point x="566" y="311" type="curve" smooth="yes"/>
      <point x="602" y="339"/>
      <point x="649" y="354"/>
      <point x="708" y="354" type="curve"/>
      <point x="721" y="366"/>
      <point x="727" y="375"/>
      <point x="727" y="380" type="curve" smooth="yes"/>
      <point x="727" y="384"/>
      <point x="725" y="386"/>
      <point x="719" y="386" type="curve" smooth="yes"/>
      <point x="658" y="392"/>
      <point x="619" y="406"/>
      <point x="604" y="426" type="curve" smooth="yes"/>
      <point x="596" y="436"/>
      <point x="592" y="451"/>
      <point x="592" y="471" type="curve" smooth="yes"/>
      <point x="592" y="511"/>
      <point x="605" y="564"/>
      <point x="631" y="630" type="curve" smooth="yes"/>
      <point x="668" y="727"/>
      <point x="679" y="809"/>
      <point x="651" y="846" type="curve" smooth="yes"/>
      <point x="630" y="874"/>
      <point x="579" y="887"/>
      <point x="496" y="887" type="curve" smooth="yes"/>
      <point x="490" y="887" type="line"/>
      <point x="479" y="877"/>
      <point x="473" y="870"/>
      <point x="473" y="866" type="curve" smooth="yes"/>
      <point x="473" y="862"/>
      <point x="476" y="860"/>
      <point x="483" y="860" type="curve" smooth="yes"/>
      <point x="540" y="860"/>
      <point x="576" y="849"/>
      <point x="591" y="827" type="curve" smooth="yes"/>
      <point x="603" y="811"/>
      <point x="606" y="776"/>
      <point x="591" y="726" type="curve" smooth="yes"/>
      <point x="559" y="623" type="line" smooth="yes"/>
      <point x="550" y="596"/>
      <point x="539" y="549"/>
      <point x="535" y="520" type="curve" smooth="yes"/>
      <point x="532" y="505"/>
      <point x="527" y="484"/>
      <point x="532" y="470" type="curve" smooth="yes"/>
      <point x="551" y="411"/>
      <point x="595" y="379"/>
      <point x="655" y="369" type="curve"/>
      <point x="585" y="355"/>
      <point x="533" y="334"/>
      <point x="499" y="303" type="curve" smooth="yes"/>
      <point x="454" y="262"/>
      <point x="419" y="174"/>
      <point x="401" y="104" type="curve" smooth="yes"/>
      <point x="378" y="10"/>
      <point x="349" y="-51"/>
      <point x="315" y="-78" type="curve" smooth="yes"/>
      <point x="288" y="-99"/>
      <point x="246" y="-110"/>
      <point x="187" y="-110" type="curve" smooth="yes"/>
      <point x="175" y="-110"/>
      <point x="170" y="-117"/>
      <point x="170" y="-131" type="curve" smooth="yes"/>
      <point x="170" y="-134"/>
      <point x="172" y="-135"/>
    </contour>
  </outline>
</glyph>
<glyph name="exclamdown" format="2">
  <advance width="650"/>
  <unicode hex="00A1"/>
  <note>
exclamdown
</note>
  <outline>
    <contour>
      <point x="169" y="-354" type="line" smooth="yes"/>
      <point x="208" y="-354"/>
      <point x="233" y="-344"/>
      <point x="244" y="-324" type="curve" smooth="yes"/>
      <point x="606" y="368" type="line"/>
      <point x="607" y="378" type="line"/>
      <point x="593" y="379" type="line"/>
      <point x="580" y="360"/>
      <point x="132" y="-295"/>
      <point x="115" y="-341" type="curve"/>
      <point x="118" y="-350" type="line"/>
      <point x="125" y="-352" type="line"/>
    </contour>
    <contour>
      <point x="646" y="435" type="curve" smooth="yes"/>
      <point x="679" y="435"/>
      <point x="716" y="459"/>
      <point x="716" y="510" type="curve" smooth="yes"/>
      <point x="716" y="526"/>
      <point x="699" y="552"/>
      <point x="666" y="552" type="curve" smooth="yes"/>
      <point x="638" y="552"/>
      <point x="596" y="531"/>
      <point x="596" y="476" type="curve" smooth="yes"/>
      <point x="596" y="461"/>
      <point x="614" y="435"/>
    </contour>
  </outline>
</glyph>
<glyph name="section" format="2">
  <advance width="780"/>
  <unicode hex="00A7"/>
  <note>
section
</note>
  <outline>
    <contour>
      <point x="175" y="-379" type="curve" smooth="yes"/>
      <point x="235" y="-379"/>
      <point x="291" y="-370"/>
      <point x="344" y="-352" type="curve" smooth="yes"/>
      <point x="407" y="-329"/>
      <point x="453" y="-295"/>
      <point x="481" y="-249" type="curve" smooth="yes"/>
      <point x="494" y="-226"/>
      <point x="501" y="-203"/>
      <point x="501" y="-180" type="curve" smooth="yes"/>
      <point x="501" y="-157"/>
      <point x="494" y="-134"/>
      <point x="478" y="-110" type="curve"/>
      <point x="492" y="-104"/>
      <point x="510" y="-95"/>
      <point x="530" y="-83" type="curve" smooth="yes"/>
      <point x="602" y="-39"/>
      <point x="655" y="12"/>
      <point x="693" y="71" type="curve" smooth="yes"/>
      <point x="714" y="105"/>
      <point x="725" y="137"/>
      <point x="725" y="169" type="curve" smooth="yes"/>
      <point x="725" y="214"/>
      <point x="700" y="270"/>
      <point x="625" y="316" type="curve" smooth="yes"/>
      <point x="600" y="331"/>
      <point x="560" y="351"/>
      <point x="506" y="376" type="curve" smooth="yes"/>
      <point x="452" y="400"/>
      <point x="416" y="418"/>
      <point x="398" y="429" type="curve" smooth="yes"/>
      <point x="350" y="459"/>
      <point x="327" y="493"/>
      <point x="327" y="531" type="curve" smooth="yes"/>
      <point x="327" y="559"/>
      <point x="343" y="587"/>
      <point x="375" y="615" type="curve" smooth="yes"/>
      <point x="396" y="633"/>
      <point x="421" y="647"/>
      <point x="450" y="658" type="curve" smooth="yes"/>
      <point x="505" y="677"/>
      <point x="556" y="688"/>
      <point x="601" y="688" type="curve" smooth="yes"/>
      <point x="653" y="688"/>
      <point x="693" y="673"/>
      <point x="723" y="645" type="curve" smooth="yes"/>
      <point x="743" y="625"/>
      <point x="753" y="604"/>
      <point x="753" y="582" type="curve" smooth="yes"/>
      <point x="753" y="575"/>
      <point x="753" y="569"/>
      <point x="751" y="562" type="curve" smooth="yes"/>
      <point x="744" y="535"/>
      <point x="725" y="519"/>
      <point x="694" y="515" type="curve" smooth="yes"/>
      <point x="677" y="514"/>
      <point x="669" y="508"/>
      <point x="670" y="500" type="curve" smooth="yes"/>
      <point x="671" y="494"/>
      <point x="678" y="493"/>
      <point x="689" y="496" type="curve" smooth="yes"/>
      <point x="716" y="504"/>
      <point x="737" y="514"/>
      <point x="753" y="527" type="curve" smooth="yes"/>
      <point x="776" y="547"/>
      <point x="788" y="569"/>
      <point x="788" y="594" type="curve" smooth="yes"/>
      <point x="788" y="601"/>
      <point x="787" y="607"/>
      <point x="786" y="613" type="curve" smooth="yes"/>
      <point x="771" y="679"/>
      <point x="702" y="711"/>
      <point x="583" y="711" type="curve" smooth="yes"/>
      <point x="523" y="711"/>
      <point x="467" y="702"/>
      <point x="414" y="684" type="curve" smooth="yes"/>
      <point x="351" y="661"/>
      <point x="305" y="627"/>
      <point x="277" y="580" type="curve" smooth="yes"/>
      <point x="263" y="558"/>
      <point x="256" y="535"/>
      <point x="256" y="511" type="curve" smooth="yes"/>
      <point x="256" y="488"/>
      <point x="264" y="464"/>
      <point x="280" y="441" type="curve"/>
      <point x="262" y="433"/>
      <point x="245" y="425"/>
      <point x="229" y="415" type="curve" smooth="yes"/>
      <point x="156" y="371"/>
      <point x="103" y="321"/>
      <point x="65" y="261" type="curve" smooth="yes"/>
      <point x="44" y="227"/>
      <point x="33" y="195"/>
      <point x="33" y="163" type="curve" smooth="yes"/>
      <point x="33" y="118"/>
      <point x="58" y="62"/>
      <point x="133" y="16" type="curve" smooth="yes"/>
      <point x="158" y="1"/>
      <point x="198" y="-19"/>
      <point x="252" y="-44" type="curve" smooth="yes"/>
      <point x="306" y="-68"/>
      <point x="342" y="-86"/>
      <point x="360" y="-97" type="curve" smooth="yes"/>
      <point x="408" y="-127"/>
      <point x="432" y="-161"/>
      <point x="432" y="-199" type="curve" smooth="yes"/>
      <point x="432" y="-227"/>
      <point x="415" y="-255"/>
      <point x="383" y="-283" type="curve" smooth="yes"/>
      <point x="362" y="-301"/>
      <point x="337" y="-315"/>
      <point x="308" y="-326" type="curve" smooth="yes"/>
      <point x="253" y="-345"/>
      <point x="202" y="-356"/>
      <point x="158" y="-356" type="curve" smooth="yes"/>
      <point x="106" y="-356"/>
      <point x="65" y="-341"/>
      <point x="35" y="-313" type="curve" smooth="yes"/>
      <point x="15" y="-293"/>
      <point x="5" y="-272"/>
      <point x="5" y="-250" type="curve" smooth="yes"/>
      <point x="5" y="-243"/>
      <point x="5" y="-237"/>
      <point x="7" y="-230" type="curve" smooth="yes"/>
      <point x="14" y="-203"/>
      <point x="33" y="-187"/>
      <point x="64" y="-183" type="curve" smooth="yes"/>
      <point x="81" y="-182"/>
      <point x="89" y="-176"/>
      <point x="88" y="-168" type="curve" smooth="yes"/>
      <point x="87" y="-162"/>
      <point x="81" y="-161"/>
      <point x="69" y="-164" type="curve" smooth="yes"/>
      <point x="42" y="-172"/>
      <point x="21" y="-182"/>
      <point x="5" y="-195" type="curve" smooth="yes"/>
      <point x="-18" y="-215"/>
      <point x="-30" y="-237"/>
      <point x="-30" y="-262" type="curve" smooth="yes"/>
      <point x="-30" y="-269"/>
      <point x="-29" y="-275"/>
      <point x="-28" y="-281" type="curve" smooth="yes"/>
      <point x="-13" y="-347"/>
      <point x="56" y="-379"/>
    </contour>
    <contour>
      <point x="458" y="-87" type="line"/>
      <point x="394" y="-27"/>
      <point x="270" y="-13"/>
      <point x="169" y="66" type="curve" smooth="yes"/>
      <point x="129" y="99"/>
      <point x="110" y="138"/>
      <point x="110" y="181" type="curve" smooth="yes"/>
      <point x="110" y="201"/>
      <point x="114" y="220"/>
      <point x="122" y="241" type="curve" smooth="yes"/>
      <point x="146" y="310"/>
      <point x="200" y="366"/>
      <point x="282" y="410" type="curve" smooth="yes"/>
      <point x="300" y="419" type="line"/>
      <point x="321" y="398"/>
      <point x="374" y="370"/>
      <point x="460" y="333" type="curve" smooth="yes"/>
      <point x="525" y="305"/>
      <point x="568" y="282"/>
      <point x="590" y="266" type="curve" smooth="yes"/>
      <point x="629" y="233"/>
      <point x="648" y="194"/>
      <point x="648" y="151" type="curve" smooth="yes"/>
      <point x="648" y="131"/>
      <point x="644" y="112"/>
      <point x="636" y="91" type="curve" smooth="yes"/>
      <point x="612" y="22"/>
      <point x="559" y="-34"/>
      <point x="476" y="-78" type="curve" smooth="yes"/>
    </contour>
  </outline>
</glyph>
<glyph name="copyright" format="2">
  <advance width="961"/>
  <unicode hex="00A9"/>
  <note>
copyright
</note>
  <outline>
    <contour>
      <point x="460" y="-95" type="curve" smooth="yes"/>
      <point x="570" y="-95"/>
      <point x="669" y="-58"/>
      <point x="759" y="14" type="curve" smooth="yes"/>
      <point x="858" y="94"/>
      <point x="908" y="190"/>
      <point x="908" y="302" type="curve" smooth="yes"/>
      <point x="908" y="459"/>
      <point x="769" y="602"/>
      <point x="549" y="602" type="curve" smooth="yes"/>
      <point x="439" y="602"/>
      <point x="339" y="564"/>
      <point x="249" y="492" type="curve" smooth="yes"/>
      <point x="149" y="412"/>
      <point x="100" y="317"/>
      <point x="100" y="205" type="curve" smooth="yes"/>
      <point x="100" y="44"/>
      <point x="239" y="-95"/>
    </contour>
    <contour>
      <point x="445" y="74" type="curve" smooth="yes"/>
      <point x="510" y="74"/>
      <point x="562" y="105"/>
      <point x="602" y="169" type="curve"/>
      <point x="614" y="197"/>
      <point x="588" y="193"/>
      <point x="583" y="179" type="curve"/>
      <point x="545" y="122"/>
      <point x="503" y="93"/>
      <point x="457" y="93" type="curve" smooth="yes"/>
      <point x="414" y="93"/>
      <point x="395" y="125"/>
      <point x="395" y="173" type="curve" smooth="yes"/>
      <point x="395" y="273"/>
      <point x="497" y="422"/>
      <point x="563" y="422" type="curve" smooth="yes"/>
      <point x="579" y="422"/>
      <point x="588" y="413"/>
      <point x="588" y="394" type="curve" smooth="yes"/>
      <point x="588" y="369"/>
      <point x="575" y="343"/>
      <point x="552" y="317" type="curve"/>
      <point x="557" y="312"/>
      <point x="562" y="309"/>
      <point x="568" y="309" type="curve" smooth="yes"/>
      <point x="575" y="309"/>
      <point x="583" y="313"/>
      <point x="593" y="322" type="curve" smooth="yes"/>
      <point x="612" y="339"/>
      <point x="620" y="359"/>
      <point x="620" y="382" type="curve" smooth="yes"/>
      <point x="620" y="417"/>
      <point x="600" y="444"/>
      <point x="549" y="444" type="curve" smooth="yes"/>
      <point x="497" y="444"/>
      <point x="452" y="417"/>
      <point x="410" y="362" type="curve" smooth="yes"/>
      <point x="370" y="308"/>
      <point x="338" y="228"/>
      <point x="338" y="169" type="curve" smooth="yes"/>
      <point x="338" y="119"/>
      <point x="369" y="74"/>
    </contour>
    <contour>
      <point x="452" y="-77" type="curve" smooth="yes"/>
      <point x="272" y="-77"/>
      <point x="154" y="55"/>
      <point x="154" y="203" type="curve" smooth="yes"/>
      <point x="154" y="310"/>
      <point x="198" y="403"/>
      <point x="288" y="482" type="curve" smooth="yes"/>
      <point x="364" y="549"/>
      <point x="452" y="583"/>
      <point x="552" y="583" type="curve" smooth="yes"/>
      <point x="734" y="583"/>
      <point x="854" y="450"/>
      <point x="854" y="302" type="curve" smooth="yes"/>
      <point x="854" y="194"/>
      <point x="809" y="102"/>
      <point x="720" y="24" type="curve" smooth="yes"/>
      <point x="643" y="-43"/>
      <point x="554" y="-77"/>
    </contour>
  </outline>
</glyph>
<glyph name="logicalnot" format="2">
  <advance width="987"/>
  <unicode hex="00AC"/>
  <note>
logicalnot
</note>
  <outline>
    <contour>
      <point x="881" y="28" type="curve" smooth="yes"/>
      <point x="905" y="28"/>
      <point x="918" y="39"/>
      <point x="921" y="61" type="curve"/>
      <point x="998" y="423" type="line"/>
      <point x="145" y="423" type="line" smooth="yes"/>
      <point x="129" y="423"/>
      <point x="100" y="388"/>
      <point x="100" y="370" type="curve" smooth="yes"/>
      <point x="100" y="357"/>
      <point x="111" y="351"/>
      <point x="130" y="351" type="curve" smooth="yes"/>
      <point x="914" y="351" type="line"/>
      <point x="852" y="61" type="line"/>
      <point x="850" y="45"/>
      <point x="864" y="28"/>
    </contour>
  </outline>
</glyph>
<glyph name="uni00AD" format="2">
  <advance width="506"/>
  <unicode hex="00AD"/>
  <note>
uni00AD
</note>
  <outline>
    <contour>
      <point x="215" y="264" type="curve"/>
      <point x="320" y="276" type="line" smooth="yes"/>
      <point x="389" y="284"/>
      <point x="462" y="288"/>
      <point x="536" y="288" type="curve"/>
      <point x="550" y="289"/>
      <point x="559" y="297"/>
      <point x="561" y="308" type="curve"/>
      <point x="556" y="320"/>
      <point x="547" y="326"/>
      <point x="530" y="327" type="curve" smooth="yes"/>
      <point x="383" y="330"/>
      <point x="278" y="332"/>
      <point x="216" y="332" type="curve" smooth="yes"/>
      <point x="200" y="332"/>
      <point x="192" y="323"/>
      <point x="192" y="303" type="curve" smooth="yes"/>
      <point x="192" y="287"/>
      <point x="204" y="264"/>
    </contour>
  </outline>
</glyph>
<glyph name="registered" format="2">
  <advance width="961"/>
  <unicode hex="00AE"/>
  <note>
registered
</note>
  <outline>
    <contour>
      <point x="430" y="-114" type="curve" smooth="yes"/>
      <point x="540" y="-114"/>
      <point x="640" y="-78"/>
      <point x="728" y="-6" type="curve" smooth="yes"/>
      <point x="828" y="75"/>
      <point x="877" y="171"/>
      <point x="877" y="282" type="curve" smooth="yes"/>
      <point x="877" y="439"/>
      <point x="739" y="581"/>
      <point x="519" y="581" type="curve" smooth="yes"/>
      <point x="409" y="581"/>
      <point x="308" y="544"/>
      <point x="219" y="472" type="curve" smooth="yes"/>
      <point x="120" y="392"/>
      <point x="71" y="296"/>
      <point x="71" y="186" type="curve" smooth="yes"/>
      <point x="71" y="24"/>
      <point x="209" y="-114"/>
    </contour>
    <contour>
      <point x="421" y="-97" type="curve" smooth="yes"/>
      <point x="242" y="-97"/>
      <point x="124" y="36"/>
      <point x="124" y="183" type="curve" smooth="yes"/>
      <point x="124" y="290"/>
      <point x="168" y="383"/>
      <point x="257" y="461" type="curve" smooth="yes"/>
      <point x="334" y="529"/>
      <point x="422" y="563"/>
      <point x="522" y="563" type="curve" smooth="yes"/>
      <point x="704" y="563"/>
      <point x="824" y="430"/>
      <point x="824" y="281" type="curve" smooth="yes"/>
      <point x="824" y="175"/>
      <point x="779" y="82"/>
      <point x="690" y="4" type="curve" smooth="yes"/>
      <point x="613" y="-64"/>
      <point x="524" y="-97"/>
    </contour>
    <contour>
      <point x="275" y="56" type="curve" smooth="yes"/>
      <point x="332" y="56"/>
      <point x="378" y="74"/>
      <point x="412" y="112" type="curve" smooth="yes"/>
      <point x="440" y="141"/>
      <point x="469" y="188"/>
      <point x="500" y="250" type="curve"/>
      <point x="503" y="229" type="line" smooth="yes"/>
      <point x="510" y="178"/>
      <point x="520" y="139"/>
      <point x="536" y="111" type="curve" smooth="yes"/>
      <point x="557" y="75"/>
      <point x="584" y="56"/>
      <point x="620" y="56" type="curve" smooth="yes"/>
      <point x="642" y="56"/>
      <point x="659" y="64"/>
      <point x="672" y="76" type="curve" smooth="yes"/>
      <point x="685" y="90"/>
      <point x="704" y="120"/>
      <point x="728" y="169" type="curve" smooth="yes"/>
      <point x="731" y="177"/>
      <point x="726" y="182"/>
      <point x="718" y="169" type="curve"/>
      <point x="690" y="108"/>
      <point x="661" y="77"/>
      <point x="632" y="77" type="curve" smooth="yes"/>
      <point x="617" y="77"/>
      <point x="601" y="90"/>
      <point x="584" y="116" type="curve" smooth="yes"/>
      <point x="557" y="156"/>
      <point x="539" y="206"/>
      <point x="529" y="264" type="curve"/>
      <point x="584" y="264"/>
      <point x="632" y="274"/>
      <point x="673" y="293" type="curve" smooth="yes"/>
      <point x="718" y="315"/>
      <point x="740" y="340"/>
      <point x="740" y="370" type="curve" smooth="yes"/>
      <point x="740" y="403"/>
      <point x="713" y="427"/>
      <point x="659" y="443" type="curve" smooth="yes"/>
      <point x="653" y="444"/>
      <point x="644" y="446"/>
      <point x="632" y="448" type="curve" smooth="yes"/>
      <point x="610" y="452" type="line"/>
      <point x="612" y="463"/>
      <point x="612" y="468"/>
      <point x="608" y="468" type="curve" smooth="yes"/>
      <point x="606" y="468"/>
      <point x="600" y="464"/>
      <point x="592" y="455" type="curve"/>
      <point x="537" y="464"/>
      <point x="470" y="465"/>
      <point x="392" y="452" type="curve" smooth="yes"/>
      <point x="300" y="439"/>
      <point x="227" y="379"/>
      <point x="227" y="313" type="curve" smooth="yes"/>
      <point x="227" y="241"/>
      <point x="314" y="215"/>
      <point x="366" y="269" type="curve"/>
      <point x="376" y="278"/>
      <point x="383" y="288"/>
      <point x="384" y="299" type="curve" smooth="yes"/>
      <point x="385" y="310"/>
      <point x="385" y="316"/>
      <point x="382" y="316" type="curve" smooth="yes"/>
      <point x="378" y="316"/>
      <point x="376" y="293"/>
      <point x="358" y="275" type="curve" smooth="yes"/>
      <point x="344" y="260"/>
      <point x="326" y="253"/>
      <point x="306" y="253" type="curve" smooth="yes"/>
      <point x="272" y="253"/>
      <point x="251" y="281"/>
      <point x="251" y="300" type="curve" smooth="yes"/>
      <point x="251" y="310"/>
      <point x="251" y="317"/>
      <point x="252" y="323" type="curve" smooth="yes"/>
      <point x="263" y="369"/>
      <point x="314" y="415"/>
      <point x="398" y="432" type="curve" smooth="yes"/>
      <point x="480" y="449"/>
      <point x="536" y="447"/>
      <point x="581" y="443" type="curve"/>
      <point x="563" y="424"/>
      <point x="544" y="396"/>
      <point x="522" y="359" type="curve" smooth="yes"/>
      <point x="495" y="310"/>
      <point x="456" y="218"/>
      <point x="378" y="126" type="curve" smooth="yes"/>
      <point x="332" y="73"/>
      <point x="263" y="56"/>
      <point x="233" y="84" type="curve" smooth="yes"/>
      <point x="212" y="105"/>
      <point x="222" y="149"/>
      <point x="259" y="149" type="curve" smooth="yes"/>
      <point x="300" y="149"/>
      <point x="325" y="137"/>
      <point x="298" y="149" type="curve" smooth="yes"/>
      <point x="282" y="155"/>
      <point x="267" y="157"/>
      <point x="253" y="157" type="curve" smooth="yes"/>
      <point x="240" y="157"/>
      <point x="228" y="155"/>
      <point x="217" y="150" type="curve" smooth="yes"/>
      <point x="198" y="140"/>
      <point x="188" y="128"/>
      <point x="188" y="111" type="curve" smooth="yes"/>
      <point x="188" y="74"/>
      <point x="217" y="56"/>
    </contour>
    <contour>
      <point x="527" y="280" type="line"/>
      <point x="545" y="319"/>
      <point x="574" y="372"/>
      <point x="613" y="437" type="curve"/>
      <point x="655" y="431"/>
      <point x="666" y="428"/>
      <point x="684" y="413" type="curve" smooth="yes"/>
      <point x="704" y="398"/>
      <point x="703" y="372"/>
      <point x="683" y="342" type="curve" smooth="yes"/>
      <point x="660" y="310"/>
      <point x="627" y="291"/>
      <point x="584" y="286" type="curve" smooth="yes"/>
    </contour>
  </outline>
</glyph>
<glyph name="macron" format="2">
  <advance width="485"/>
  <unicode hex="00AF"/>
  <note>
macron
</note>
  <outline>
    <contour>
      <point x="127" y="484" type="line"/>
      <point x="448" y="484" type="line"/>
      <point x="466" y="529" type="line"/>
      <point x="146" y="529" type="line"/>
    </contour>
  </outline>
</glyph>
<glyph name="degree" format="2">
  <advance width="323"/>
  <unicode hex="00B0"/>
  <note>
degree
</note>
  <outline>
    <contour>
      <point x="161" y="672" type="curve" smooth="yes"/>
      <point x="216" y="672"/>
      <point x="259" y="714"/>
      <point x="259" y="767" type="curve" smooth="yes"/>
      <point x="259" y="820"/>
      <point x="215" y="864"/>
      <point x="163" y="864" type="curve" smooth="yes"/>
      <point x="111" y="864"/>
      <point x="67" y="820"/>
      <point x="67" y="767" type="curve" smooth="yes"/>
      <point x="67" y="714"/>
      <point x="106" y="672"/>
    </contour>
    <contour>
      <point x="165" y="691" type="curve" smooth="yes"/>
      <point x="132" y="691"/>
      <point x="90" y="711"/>
      <point x="90" y="761" type="curve" smooth="yes"/>
      <point x="90" y="809"/>
      <point x="121" y="840"/>
      <point x="162" y="840" type="curve" smooth="yes"/>
      <point x="203" y="840"/>
      <point x="234" y="806"/>
      <point x="234" y="767" type="curve" smooth="yes"/>
      <point x="234" y="728"/>
      <point x="198" y="691"/>
    </contour>
  </outline>
</glyph>
<glyph name="plusminus" format="2">
  <advance width="458"/>
  <unicode hex="00B1"/>
  <note>
plusminus
</note>
  <outline>
    <contour>
      <point x="266" y="152" type="curve" smooth="yes"/>
      <point x="270" y="152"/>
      <point x="275" y="152"/>
      <point x="279" y="154" type="curve" smooth="yes"/>
      <point x="297" y="157"/>
      <point x="307" y="164"/>
      <point x="308" y="173" type="curve" smooth="yes"/>
      <point x="309" y="184"/>
      <point x="315" y="220"/>
      <point x="325" y="280" type="curve" smooth="yes"/>
      <point x="335" y="337" type="line"/>
      <point x="495" y="344" type="line" smooth="yes"/>
      <point x="512" y="344"/>
      <point x="520" y="349"/>
      <point x="520" y="360" type="curve" smooth="yes"/>
      <point x="520" y="366"/>
      <point x="516" y="377"/>
      <point x="499" y="377" type="curve" smooth="yes"/>
      <point x="343" y="377" type="line"/>
      <point x="361" y="476"/>
      <point x="372" y="533"/>
      <point x="377" y="551" type="curve" smooth="yes"/>
      <point x="382" y="568"/>
      <point x="379" y="577"/>
      <point x="371" y="577" type="curve" smooth="yes"/>
      <point x="359" y="577"/>
      <point x="350" y="568"/>
      <point x="344" y="550" type="curve" smooth="yes"/>
      <point x="340" y="534"/>
      <point x="333" y="505"/>
      <point x="323" y="464" type="curve" smooth="yes"/>
      <point x="314" y="421"/>
      <point x="307" y="392"/>
      <point x="303" y="378" type="curve"/>
      <point x="136" y="382" type="line"/>
      <point x="120" y="380"/>
      <point x="111" y="368"/>
      <point x="109" y="347" type="curve"/>
      <point x="110" y="331"/>
      <point x="114" y="323"/>
      <point x="122" y="324" type="curve" smooth="yes"/>
      <point x="134" y="325"/>
      <point x="161" y="328"/>
      <point x="202" y="329" type="curve" smooth="yes"/>
      <point x="243" y="332"/>
      <point x="273" y="333"/>
      <point x="292" y="335" type="curve"/>
      <point x="263" y="227"/>
      <point x="249" y="171"/>
      <point x="249" y="167" type="curve" smooth="yes"/>
      <point x="249" y="157"/>
      <point x="255" y="152"/>
    </contour>
    <contour>
      <point x="116" y="59" type="curve" smooth="yes"/>
      <point x="117" y="59" type="line" smooth="yes"/>
      <point x="206" y="69"/>
      <point x="311" y="75"/>
      <point x="434" y="75" type="curve" smooth="yes"/>
      <point x="447" y="76"/>
      <point x="455" y="80"/>
      <point x="455" y="87" type="curve" smooth="yes"/>
      <point x="455" y="92" type="line"/>
      <point x="451" y="102"/>
      <point x="443" y="107"/>
      <point x="429" y="107" type="curve" smooth="yes"/>
      <point x="117" y="116" type="line" smooth="yes"/>
      <point x="103" y="116"/>
      <point x="97" y="108"/>
      <point x="97" y="92" type="curve" smooth="yes"/>
      <point x="97" y="78"/>
      <point x="106" y="59"/>
    </contour>
  </outline>
</glyph>
<glyph name="mu" format="2">
  <advance width="689"/>
  <unicode hex="00B5"/>
  <note>
mu
</note>
  <outline>
    <contour>
      <point x="222" y="-243" type="curve" smooth="yes"/>
      <point x="235" y="-243"/>
      <point x="243" y="-243"/>
      <point x="244" y="-240" type="curve" smooth="yes"/>
      <point x="399" y="99" type="line"/>
      <point x="424" y="52"/>
      <point x="485" y="53"/>
      <point x="537" y="106" type="curve" smooth="yes"/>
      <point x="565" y="133"/>
      <point x="588" y="163"/>
      <point x="608" y="196" type="curve"/>
      <point x="577" y="28"/>
      <point x="657" y="61"/>
      <point x="658" y="63" type="curve"/>
      <point x="713" y="63"/>
      <point x="771" y="130"/>
      <point x="833" y="265" type="curve"/>
      <point x="830" y="268" type="line"/>
      <point x="823" y="268" type="line"/>
      <point x="795" y="207"/>
      <point x="764" y="157"/>
      <point x="728" y="116" type="curve" smooth="yes"/>
      <point x="703" y="88"/>
      <point x="681" y="75"/>
      <point x="661" y="75" type="curve" smooth="yes"/>
      <point x="647" y="75"/>
      <point x="641" y="83"/>
      <point x="641" y="99" type="curve" smooth="yes"/>
      <point x="641" y="130"/>
      <point x="668" y="197"/>
      <point x="723" y="299" type="curve" smooth="yes"/>
      <point x="817" y="481" type="line"/>
      <point x="813" y="481" type="line"/>
      <point x="807" y="465"/>
      <point x="797" y="457"/>
      <point x="782" y="457" type="curve" smooth="yes"/>
      <point x="768" y="457"/>
      <point x="756" y="460"/>
      <point x="746" y="466" type="curve"/>
      <point x="744" y="466" type="line"/>
      <point x="723" y="421"/>
      <point x="693" y="361"/>
      <point x="651" y="289" type="curve" smooth="yes"/>
      <point x="573" y="148"/>
      <point x="511" y="78"/>
      <point x="465" y="78" type="curve" smooth="yes"/>
      <point x="445" y="78"/>
      <point x="435" y="89"/>
      <point x="435" y="111" type="curve" smooth="yes"/>
      <point x="435" y="145"/>
      <point x="459" y="203"/>
      <point x="506" y="289" type="curve" smooth="yes"/>
      <point x="524" y="316"/>
      <point x="543" y="350"/>
      <point x="565" y="391" type="curve" smooth="yes"/>
      <point x="587" y="431"/>
      <point x="605" y="460"/>
      <point x="620" y="476" type="curve"/>
      <point x="617" y="478" type="line"/>
      <point x="597" y="461"/>
      <point x="578" y="453"/>
      <point x="560" y="453" type="curve" smooth="yes"/>
      <point x="553" y="453"/>
      <point x="546" y="455"/>
      <point x="541" y="459" type="curve"/>
      <point x="538" y="459" type="line"/>
      <point x="516" y="425"/>
      <point x="494" y="388"/>
      <point x="473" y="346" type="curve" smooth="yes"/>
      <point x="442" y="282" type="line"/>
      <point x="413" y="225" type="line"/>
      <point x="181" y="-231" type="line"/>
      <point x="181" y="-231"/>
      <point x="183" y="-233"/>
      <point x="186" y="-236" type="curve"/>
      <point x="197" y="-241"/>
      <point x="209" y="-243"/>
    </contour>
  </outline>
</glyph>
<glyph name="ordmasculine" format="2">
  <advance width="315"/>
  <unicode hex="00BA"/>
  <note>
ordmasculine
</note>
  <outline>
    <contour>
      <point x="63" y="463" type="curve" smooth="yes"/>
      <point x="66" y="463" type="line" smooth="yes"/>
      <point x="86" y="463"/>
      <point x="107" y="472"/>
      <point x="129" y="489" type="curve"/>
      <point x="152" y="462"/>
      <point x="184" y="462"/>
      <point x="224" y="490" type="curve" smooth="yes"/>
      <point x="244" y="504"/>
      <point x="267" y="542"/>
      <point x="293" y="603" type="curve" smooth="yes"/>
      <point x="298" y="612"/>
      <point x="288" y="619"/>
      <point x="284" y="610" type="curve" smooth="yes"/>
      <point x="261" y="559"/>
      <point x="257" y="546"/>
      <point x="222" y="505" type="curve"/>
      <point x="181" y="471"/>
      <point x="173" y="477"/>
      <point x="143" y="501" type="curve"/>
      <point x="242" y="590"/>
      <point x="245" y="726"/>
      <point x="170" y="726" type="curve" smooth="yes"/>
      <point x="167" y="726" type="line" smooth="yes"/>
      <point x="119" y="726"/>
      <point x="55" y="668"/>
      <point x="30" y="607" type="curve" smooth="yes"/>
      <point x="17" y="576"/>
      <point x="11" y="551"/>
      <point x="11" y="532" type="curve" smooth="yes"/>
      <point x="11" y="493"/>
      <point x="27" y="463"/>
    </contour>
    <contour>
      <point x="77" y="480" type="curve" smooth="yes"/>
      <point x="-3" y="480"/>
      <point x="75" y="702"/>
      <point x="177" y="702" type="curve" smooth="yes"/>
      <point x="194" y="702"/>
      <point x="203" y="686"/>
      <point x="203" y="656" type="curve" smooth="yes"/>
      <point x="203" y="626"/>
      <point x="187" y="586"/>
      <point x="156" y="537" type="curve"/>
      <point x="158" y="546" type="line" smooth="yes"/>
      <point x="158" y="560"/>
      <point x="150" y="567"/>
      <point x="135" y="567" type="curve" smooth="yes"/>
      <point x="119" y="567"/>
      <point x="110" y="556"/>
      <point x="108" y="535" type="curve" smooth="yes"/>
      <point x="108" y="523"/>
      <point x="112" y="511"/>
      <point x="120" y="498" type="curve"/>
      <point x="105" y="486"/>
      <point x="91" y="480"/>
    </contour>
  </outline>
</glyph>
<glyph name="threequarters" format="2">
  <advance width="878"/>
  <unicode hex="00BE"/>
  <note>
threequarters
</note>
  <outline>
    <contour>
      <point x="236" y="328" type="curve" smooth="yes"/>
      <point x="211" y="328"/>
      <point x="189" y="332"/>
      <point x="169" y="342" type="curve"/>
      <point x="163" y="340" type="line"/>
      <point x="157" y="335" type="line"/>
      <point x="157" y="330" type="line"/>
      <point x="203" y="296"/>
      <point x="283" y="298"/>
      <point x="368" y="340" type="curve" smooth="yes"/>
      <point x="412" y="363"/>
      <point x="449" y="392"/>
      <point x="482" y="431" type="curve" smooth="yes"/>
      <point x="515" y="468"/>
      <point x="531" y="508"/>
      <point x="531" y="541" type="curve" smooth="yes"/>
      <point x="531" y="610"/>
      <point x="464" y="632"/>
      <point x="401" y="632" type="curve"/>
      <point x="459" y="652"/>
      <point x="505" y="675"/>
      <point x="540" y="699" type="curve" smooth="yes"/>
      <point x="589" y="733"/>
      <point x="614" y="772"/>
      <point x="614" y="812" type="curve" smooth="yes"/>
      <point x="614" y="853"/>
      <point x="583" y="872"/>
      <point x="541" y="872" type="curve" smooth="yes"/>
      <point x="482" y="872"/>
      <point x="424" y="837"/>
      <point x="366" y="767" type="curve"/>
      <point x="366" y="762" type="line"/>
      <point x="373" y="756" type="line"/>
      <point x="377" y="756" type="line"/>
      <point x="438" y="824"/>
      <point x="500" y="844"/>
      <point x="538" y="842" type="curve" smooth="yes"/>
      <point x="560" y="841"/>
      <point x="566" y="828"/>
      <point x="566" y="812" type="curve" smooth="yes"/>
      <point x="566" y="775"/>
      <point x="545" y="743"/>
      <point x="514" y="716" type="curve" smooth="yes"/>
      <point x="462" y="668"/>
      <point x="381" y="636"/>
      <point x="327" y="613" type="curve"/>
      <point x="323" y="608" type="line"/>
      <point x="324" y="600" type="line"/>
      <point x="331" y="597" type="line"/>
      <point x="463" y="613"/>
      <point x="483" y="568"/>
      <point x="483" y="544" type="curve" smooth="yes"/>
      <point x="483" y="519"/>
      <point x="473" y="480"/>
      <point x="434" y="442" type="curve" smooth="yes"/>
      <point x="401" y="409"/>
      <point x="362" y="376"/>
      <point x="320" y="355" type="curve" smooth="yes"/>
      <point x="286" y="338"/>
      <point x="256" y="328"/>
    </contour>
    <contour>
      <point x="190" y="-82" type="curve" smooth="yes"/>
      <point x="220" y="-82"/>
      <point x="336" y="32"/>
      <point x="523" y="260" type="curve" smooth="yes"/>
      <point x="607" y="360"/>
      <point x="713" y="506"/>
      <point x="780" y="590" type="curve" smooth="yes"/>
      <point x="966" y="823" type="line" smooth="yes"/>
      <point x="972" y="831"/>
      <point x="975" y="836"/>
      <point x="975" y="841" type="curve" smooth="yes"/>
      <point x="975" y="850"/>
      <point x="965" y="854"/>
      <point x="956" y="854" type="curve" smooth="yes"/>
      <point x="937" y="854"/>
      <point x="923" y="848"/>
      <point x="913" y="836" type="curve" smooth="yes"/>
      <point x="883" y="796"/>
      <point x="813" y="703"/>
      <point x="724" y="591" type="curve" smooth="yes"/>
      <point x="646" y="492"/>
      <point x="554" y="378"/>
      <point x="467" y="271" type="curve" smooth="yes"/>
      <point x="356" y="134"/>
      <point x="253" y="8"/>
      <point x="192" y="-60" type="curve" smooth="yes"/>
      <point x="186" y="-67"/>
      <point x="183" y="-72"/>
      <point x="183" y="-76" type="curve" smooth="yes"/>
      <point x="183" y="-80"/>
      <point x="186" y="-82"/>
    </contour>
    <contour>
      <point x="768" y="0" type="curve"/>
      <point x="808" y="0" type="line"/>
      <point x="810" y="3"/>
      <point x="825" y="34"/>
      <point x="846" y="78" type="curve" smooth="yes"/>
      <point x="861" y="106"/>
      <point x="878" y="141"/>
      <point x="901" y="186" type="curve"/>
      <point x="928" y="186" type="line"/>
      <point x="935" y="191" type="line"/>
      <point x="940" y="202" type="line"/>
      <point x="934" y="206" type="line"/>
      <point x="911" y="206" type="line"/>
      <point x="920" y="221"/>
      <point x="977" y="330"/>
      <point x="976" y="333" type="curve" smooth="yes"/>
      <point x="974" y="339" type="line"/>
      <point x="969" y="342" type="line"/>
      <point x="958" y="340"/>
      <point x="954" y="338"/>
      <point x="944" y="336" type="curve" smooth="yes"/>
      <point x="938" y="334"/>
      <point x="934" y="330"/>
      <point x="930" y="323" type="curve" smooth="yes"/>
      <point x="867" y="202" type="line"/>
      <point x="643" y="198" type="line"/>
      <point x="650" y="205"/>
      <point x="726" y="272"/>
      <point x="869" y="403" type="curve" smooth="yes"/>
      <point x="910" y="442"/>
      <point x="942" y="473"/>
      <point x="964" y="496" type="curve" smooth="yes"/>
      <point x="987" y="520"/>
      <point x="998" y="535"/>
      <point x="997" y="542" type="curve" smooth="yes"/>
      <point x="995" y="548" type="line"/>
      <point x="989" y="551" type="line"/>
      <point x="966" y="547"/>
      <point x="954" y="554"/>
      <point x="916" y="507" type="curve" smooth="yes"/>
      <point x="858" y="429"/>
      <point x="762" y="349"/>
      <point x="678" y="266" type="curve" smooth="yes"/>
      <point x="637" y="223"/>
      <point x="612" y="196"/>
      <point x="606" y="185" type="curve"/>
      <point x="606" y="177" type="line"/>
      <point x="855" y="182" type="line"/>
      <point x="833" y="142"/>
      <point x="812" y="108"/>
      <point x="798" y="80" type="curve" smooth="yes"/>
      <point x="773" y="30"/>
      <point x="768" y="14"/>
    </contour>
  </outline>
</glyph>
<glyph name="Thorn" format="2">
  <advance width="336"/>
  <unicode hex="00DE"/>
  <note>
Thorn
</note>
  <outline>
    <contour>
      <point x="53.5" y="3" type="curve" smooth="yes"/>
      <point x="63.443" y="3"/>
      <point x="74.978" y="0.021"/>
      <point x="92.5" y="13" type="curve" smooth="yes"/>
      <point x="101.5" y="19.667"/>
      <point x="111.333" y="33.667"/>
      <point x="122" y="55" type="curve" smooth="yes"/>
      <point x="197" y="208" type="line"/>
      <point x="204.333" y="207.333"/>
      <point x="211.667" y="207"/>
      <point x="219" y="207" type="curve" smooth="yes"/>
      <point x="359.398" y="207"/>
      <point x="476.796" y="256.749"/>
      <point x="539" y="333" type="curve" smooth="yes"/>
      <point x="569.667" y="371"/>
      <point x="585" y="408.667"/>
      <point x="585" y="446" type="curve" smooth="yes"/>
      <point x="585" y="460"/>
      <point x="579.333" y="477"/>
      <point x="568" y="497" type="curve" smooth="yes"/>
      <point x="534.667" y="555.667"/>
      <point x="455" y="599.333"/>
      <point x="367" y="614" type="curve"/>
      <point x="421" y="750" type="line"/>
      <point x="427" y="768.667"/>
      <point x="430" y="784.333"/>
      <point x="430" y="797" type="curve" smooth="yes"/>
      <point x="430" y="809.667"/>
      <point x="423" y="822.333"/>
      <point x="409" y="835" type="curve" smooth="yes"/>
      <point x="406.333" y="837.667"/>
      <point x="399.667" y="839.833"/>
      <point x="389" y="841.5" type="curve" smooth="yes"/>
      <point x="378.333" y="843.167"/>
      <point x="371.667" y="846"/>
      <point x="369" y="850" type="curve"/>
      <point x="370.333" y="798"/>
      <point x="304.667" y="555"/>
      <point x="206" y="347" type="curve" smooth="yes"/>
      <point x="162" y="255"/>
      <point x="35" y="30.667"/>
      <point x="11" y="8" type="curve"/>
      <point x="16.333" y="8.667"/>
      <point x="24.167" y="8"/>
      <point x="34.5" y="6" type="curve" smooth="yes"/>
      <point x="44.833" y="4"/>
      <point x="51.167" y="3"/>
    </contour>
    <contour>
      <point x="206" y="228" type="curve"/>
      <point x="238" y="293" type="line"/>
      <point x="248.667" y="308.333"/>
      <point x="272.667" y="363.667"/>
      <point x="310" y="459" type="curve" smooth="yes"/>
      <point x="360" y="595" type="line"/>
      <point x="406" y="584.333"/>
      <point x="441" y="572.333"/>
      <point x="465" y="559" type="curve" smooth="yes"/>
      <point x="509" y="532.333"/>
      <point x="531" y="493.333"/>
      <point x="531" y="442" type="curve" smooth="yes"/>
      <point x="531" y="344.126"/>
      <point x="414.507" y="233.279"/>
    </contour>
  </outline>
</glyph>
<glyph name="ae" format="2">
  <advance width="655"/>
  <unicode hex="00E6"/>
  <note>
ae
</note>
  <anchor x="379" y="511" name="top"/>
  <outline>
    <contour>
      <point x="377" y="138" type="curve"/>
      <point x="389" y="197" type="line"/>
      <point x="320" y="87"/>
      <point x="262" y="32"/>
      <point x="216" y="32" type="curve" smooth="yes"/>
      <point x="165" y="32"/>
      <point x="145" y="89"/>
      <point x="163" y="160" type="curve" smooth="yes"/>
      <point x="184" y="248"/>
      <point x="249" y="357"/>
      <point x="294" y="407" type="curve" smooth="yes"/>
      <point x="357" y="475"/>
      <point x="452" y="492"/>
      <point x="494" y="492" type="curve" smooth="yes"/>
      <point x="532" y="492"/>
      <point x="533" y="481"/>
      <point x="559" y="453" type="curve" smooth="yes"/>
      <point x="577" y="434"/>
      <point x="585" y="467"/>
      <point x="565" y="489" type="curve" smooth="yes"/>
      <point x="533" y="521"/>
      <point x="514" y="527"/>
      <point x="468" y="527" type="curve" smooth="yes"/>
      <point x="417" y="527"/>
      <point x="314" y="499"/>
      <point x="237" y="410" type="curve" smooth="yes"/>
      <point x="152" y="309"/>
      <point x="110" y="209"/>
      <point x="110" y="111" type="curve" smooth="yes"/>
      <point x="110" y="37"/>
      <point x="148" y="-12"/>
      <point x="198" y="-12" type="curve" smooth="yes"/>
      <point x="249" y="-12"/>
      <point x="309" y="38"/>
    </contour>
    <component base="e" xOffset="271"/>
  </outline>
</glyph>
<glyph name="ogonek" format="2">
  <advance width="333"/>
  <unicode hex="02DB"/>
  <note>
ogonek
</note>
  <outline>
    <contour>
      <point x="88" y="-212" type="curve" smooth="yes"/>
      <point x="142" y="-212"/>
      <point x="211" y="-164"/>
      <point x="219" y="-128" type="curve" smooth="yes"/>
      <point x="220" y="-120"/>
      <point x="217" y="-116"/>
      <point x="204" y="-122" type="curve"/>
      <point x="174" y="-152"/>
      <point x="148" y="-167"/>
      <point x="127" y="-167" type="curve" smooth="yes"/>
      <point x="66" y="-167"/>
      <point x="69" y="-91"/>
      <point x="141" y="3" type="curve" smooth="yes"/>
      <point x="178" y="51"/>
      <point x="218" y="92"/>
      <point x="262" y="127" type="curve"/>
      <point x="263" y="130"/>
      <point x="264" y="133"/>
      <point x="264" y="137" type="curve" smooth="yes"/>
      <point x="264" y="140"/>
      <point x="260" y="142"/>
      <point x="253" y="142" type="curve"/>
      <point x="169" y="106"/>
      <point x="9" y="-59"/>
      <point x="9" y="-149" type="curve" smooth="yes"/>
      <point x="9" y="-191"/>
      <point x="35" y="-212"/>
    </contour>
  </outline>
</glyph>
<glyph name="ninety-ethiopic" format="2">
  <advance width="826"/>
  <unicode hex="137A"/>
  <outline>
    <contour>
      <point x="446" y="467" type="line"/>
      <point x="435" y="236" type="line"/>
      <point x="479" y="217" type="line"/>
      <point x="491" y="447" type="line"/>
    </contour>
    <component base="_number.bars" xOffset="157"/>
    <component base="seven" xOffset="157"/>
  </outline>
</glyph>
<glyph name="afii00208" format="2">
  <advance width="1065"/>
  <unicode hex="2015"/>
  <note>
afii00208
</note>
  <outline>
    <contour>
      <point x="147" y="264" type="curve"/>
      <point x="147" y="264"/>
      <point x="301" y="273"/>
      <point x="569" y="280" type="curve" smooth="yes"/>
      <point x="811" y="286"/>
      <point x="972" y="288"/>
      <point x="1054" y="288" type="curve"/>
      <point x="1069" y="289"/>
      <point x="1076" y="297"/>
      <point x="1078" y="308" type="curve"/>
      <point x="1074" y="320"/>
      <point x="1064" y="326"/>
      <point x="1049" y="327" type="curve" smooth="yes"/>
      <point x="901" y="330"/>
      <point x="601" y="332"/>
      <point x="149" y="332" type="curve" smooth="yes"/>
      <point x="132" y="332"/>
      <point x="124" y="323"/>
      <point x="124" y="303" type="curve" smooth="yes"/>
      <point x="124" y="287"/>
      <point x="135" y="264"/>
    </contour>
  </outline>
</glyph>
<glyph name="quotesinglbase" format="2">
  <advance width="154"/>
  <unicode hex="201A"/>
  <note>
quotesinglbase
</note>
  <outline>
    <contour>
      <point x="59" y="41" type="curve" smooth="yes"/>
      <point x="62" y="41"/>
      <point x="65" y="42"/>
      <point x="69" y="44" type="curve" smooth="yes"/>
      <point x="143" y="69"/>
      <point x="212" y="124"/>
      <point x="212" y="210" type="curve" smooth="yes"/>
      <point x="212" y="252"/>
      <point x="191" y="288"/>
      <point x="156" y="288" type="curve" smooth="yes"/>
      <point x="70" y="288"/>
      <point x="62" y="170"/>
      <point x="131" y="170" type="curve" smooth="yes"/>
      <point x="145" y="170"/>
      <point x="161" y="175"/>
      <point x="175" y="184" type="curve"/>
      <point x="167" y="123"/>
      <point x="117" y="78"/>
      <point x="81" y="65" type="curve" smooth="yes"/>
      <point x="63" y="58"/>
      <point x="53" y="53"/>
      <point x="53" y="48" type="curve" smooth="yes"/>
      <point x="53" y="43"/>
      <point x="55" y="41"/>
    </contour>
  </outline>
</glyph>
<glyph name="daggerdbl" format="2">
  <advance width="627"/>
  <unicode hex="2021"/>
  <note>
daggerdbl
</note>
  <outline>
    <contour>
      <point x="125" y="-192" type="curve" smooth="yes"/>
      <point x="132" y="-192"/>
      <point x="137" y="-190"/>
      <point x="140" y="-185" type="curve"/>
      <point x="152" y="-132" type="line" smooth="yes"/>
      <point x="166" y="-79"/>
      <point x="216" y="13"/>
      <point x="300" y="144" type="curve"/>
      <point x="321" y="148"/>
      <point x="355" y="155"/>
      <point x="402" y="163" type="curve" smooth="yes"/>
      <point x="503" y="182" type="line" smooth="yes"/>
      <point x="518" y="184"/>
      <point x="525" y="188"/>
      <point x="527" y="193" type="curve"/>
      <point x="525" y="196"/>
      <point x="517" y="196"/>
      <point x="504" y="196" type="curve" smooth="yes"/>
      <point x="497" y="196" type="line" smooth="yes"/>
      <point x="482" y="196"/>
      <point x="455" y="194"/>
      <point x="414" y="189" type="curve" smooth="yes"/>
      <point x="321" y="177" type="line"/>
      <point x="370" y="251"/>
      <point x="409" y="307"/>
      <point x="439" y="345" type="curve"/>
      <point x="482" y="355" type="line"/>
      <point x="585" y="374" type="line" smooth="yes"/>
      <point x="600" y="376"/>
      <point x="607" y="380"/>
      <point x="607" y="385" type="curve"/>
      <point x="606" y="388"/>
      <point x="599" y="388"/>
      <point x="585" y="388" type="curve" smooth="yes"/>
      <point x="577" y="388" type="line" smooth="yes"/>
      <point x="561" y="388"/>
      <point x="541" y="387"/>
      <point x="515" y="383" type="curve" smooth="yes"/>
      <point x="490" y="380"/>
      <point x="473" y="378"/>
      <point x="465" y="378" type="curve"/>
      <point x="499" y="422"/>
      <point x="536" y="465"/>
      <point x="573" y="508" type="curve" smooth="yes"/>
      <point x="601" y="540"/>
      <point x="621" y="560"/>
      <point x="621" y="564" type="curve" smooth="yes"/>
      <point x="621" y="565"/>
      <point x="619" y="566"/>
      <point x="618" y="568" type="curve"/>
      <point x="609" y="576"/>
      <point x="597" y="580"/>
      <point x="580" y="580" type="curve" smooth="yes"/>
      <point x="564" y="580"/>
      <point x="553" y="577"/>
      <point x="547" y="570" type="curve" smooth="yes"/>
      <point x="474" y="487"/>
      <point x="420" y="420"/>
      <point x="384" y="369" type="curve"/>
      <point x="324" y="361" type="line" smooth="yes"/>
      <point x="266" y="354"/>
      <point x="233" y="347"/>
      <point x="225" y="340" type="curve"/>
      <point x="208" y="330"/>
      <point x="199" y="322"/>
      <point x="199" y="316" type="curve" smooth="yes"/>
      <point x="199" y="315"/>
      <point x="201" y="313"/>
      <point x="203" y="312" type="curve"/>
      <point x="204" y="308"/>
      <point x="206" y="307"/>
      <point x="209" y="307" type="curve" smooth="yes"/>
      <point x="212" y="307"/>
      <point x="217" y="308"/>
      <point x="225" y="309" type="curve" smooth="yes"/>
      <point x="229" y="309" type="line" smooth="yes"/>
      <point x="249" y="312"/>
      <point x="292" y="319"/>
      <point x="357" y="331" type="curve"/>
      <point x="312" y="267"/>
      <point x="277" y="213"/>
      <point x="253" y="169" type="curve"/>
      <point x="187" y="160"/>
      <point x="148" y="151"/>
      <point x="136" y="144" type="curve" smooth="yes"/>
      <point x="125" y="136"/>
      <point x="118" y="130"/>
      <point x="118" y="124" type="curve" smooth="yes"/>
      <point x="118" y="122"/>
      <point x="120" y="120"/>
      <point x="121" y="120" type="curve"/>
      <point x="121" y="116"/>
      <point x="123" y="115"/>
      <point x="127" y="115" type="curve" smooth="yes"/>
      <point x="131" y="115"/>
      <point x="137" y="116"/>
      <point x="142" y="117" type="curve"/>
      <point x="147" y="117" type="line"/>
      <point x="232" y="131" type="line"/>
      <point x="189" y="52"/>
      <point x="156" y="-32"/>
      <point x="129" y="-120" type="curve" smooth="yes"/>
      <point x="120" y="-154" type="line" smooth="yes"/>
      <point x="116" y="-168"/>
      <point x="113" y="-177"/>
      <point x="113" y="-180" type="curve" smooth="yes"/>
      <point x="113" y="-183" type="line" smooth="yes"/>
      <point x="113" y="-189"/>
      <point x="117" y="-192"/>
    </contour>
  </outline>
</glyph>
<glyph name="guilsinglright" format="2">
  <advance width="619"/>
  <unicode hex="203A"/>
  <note>
guilsinglright
</note>
  <outline>
    <contour>
      <point x="402" y="110" type="curve" smooth="yes"/>
      <point x="414" y="110"/>
      <point x="428" y="117"/>
      <point x="442" y="130" type="curve" smooth="yes"/>
      <point x="488" y="175"/>
      <point x="539" y="226"/>
      <point x="590" y="282" type="curve" smooth="yes"/>
      <point x="668" y="364"/>
      <point x="709" y="412"/>
      <point x="714" y="427" type="curve"/>
      <point x="714" y="437"/>
      <point x="711" y="442"/>
      <point x="707" y="444" type="curve"/>
      <point x="622" y="532"/>
      <point x="565" y="599"/>
      <point x="540" y="644" type="curve"/>
      <point x="533" y="646"/>
      <point x="527" y="647"/>
      <point x="523" y="647" type="curve" smooth="yes"/>
      <point x="510" y="647"/>
      <point x="503" y="641"/>
      <point x="499" y="626" type="curve"/>
      <point x="505" y="610"/>
      <point x="524" y="578"/>
      <point x="555" y="526" type="curve" smooth="yes"/>
      <point x="584" y="475"/>
      <point x="607" y="432"/>
      <point x="623" y="399" type="curve"/>
      <point x="567" y="332"/>
      <point x="499" y="253"/>
      <point x="417" y="161" type="curve" smooth="yes"/>
      <point x="386" y="127"/>
      <point x="382" y="110"/>
    </contour>
    <contour>
      <point x="114" y="110" type="curve"/>
      <point x="141" y="132"/>
      <point x="166" y="154"/>
      <point x="191" y="175" type="curve" smooth="yes"/>
      <point x="231" y="211"/>
      <point x="267" y="246"/>
      <point x="300" y="282" type="curve" smooth="yes"/>
      <point x="378" y="364"/>
      <point x="420" y="412"/>
      <point x="424" y="427" type="curve"/>
      <point x="424" y="437"/>
      <point x="422" y="442"/>
      <point x="416" y="444" type="curve"/>
      <point x="328" y="533"/>
      <point x="273" y="601"/>
      <point x="250" y="644" type="curve"/>
      <point x="243" y="646"/>
      <point x="237" y="647"/>
      <point x="233" y="647" type="curve" smooth="yes"/>
      <point x="220" y="647"/>
      <point x="212" y="641"/>
      <point x="208" y="626" type="curve"/>
      <point x="333" y="399" type="line"/>
      <point x="244" y="292"/>
      <point x="189" y="223"/>
      <point x="80" y="132" type="curve" smooth="yes"/>
      <point x="61" y="117"/>
      <point x="96" y="94"/>
    </contour>
  </outline>
</glyph>
<glyph name="six.superior" format="2">
  <advance width="337"/>
  <unicode hex="2076"/>
  <note>
six.superior
</note>
  <outline>
    <contour>
      <point x="105" y="221" type="curve" smooth="yes"/>
      <point x="173" y="221"/>
      <point x="254" y="293"/>
      <point x="309" y="375" type="curve" smooth="yes"/>
      <point x="335" y="415"/>
      <point x="346" y="443"/>
      <point x="346" y="480" type="curve" smooth="yes"/>
      <point x="346" y="524"/>
      <point x="322" y="556"/>
      <point x="278" y="556" type="curve" smooth="yes"/>
      <point x="199" y="556"/>
      <point x="121" y="459"/>
      <point x="101" y="373" type="curve"/>
      <point x="103" y="367" type="line"/>
      <point x="113" y="368" type="line"/>
      <point x="116" y="373" type="line"/>
      <point x="138" y="426"/>
      <point x="163" y="468"/>
      <point x="195" y="497" type="curve" smooth="yes"/>
      <point x="215" y="516"/>
      <point x="235" y="528"/>
      <point x="255" y="528" type="curve" smooth="yes"/>
      <point x="278" y="528"/>
      <point x="302" y="511"/>
      <point x="303" y="482" type="curve" smooth="yes"/>
      <point x="305" y="451"/>
      <point x="302" y="428"/>
      <point x="275" y="389" type="curve" smooth="yes"/>
      <point x="224" y="318"/>
      <point x="148" y="251"/>
      <point x="103" y="251" type="curve" smooth="yes"/>
      <point x="60" y="251"/>
      <point x="44" y="297"/>
      <point x="46" y="332" type="curve" smooth="yes"/>
      <point x="48" y="397"/>
      <point x="100" y="491"/>
      <point x="182" y="588" type="curve" smooth="yes"/>
      <point x="222" y="635"/>
      <point x="263" y="678"/>
      <point x="369" y="773" type="curve" smooth="yes"/>
      <point x="374" y="780"/>
      <point x="377" y="784"/>
      <point x="378" y="786" type="curve"/>
      <point x="372" y="796" type="line"/>
      <point x="366" y="796" type="line"/>
      <point x="286" y="739"/>
      <point x="207" y="672"/>
      <point x="134" y="593" type="curve" smooth="yes"/>
      <point x="53" y="508"/>
      <point x="-2" y="404"/>
      <point x="-2" y="331" type="curve" smooth="yes"/>
      <point x="-2" y="257"/>
      <point x="36" y="221"/>
    </contour>
  </outline>
</glyph>
<glyph name="seven.superior" format="2">
  <advance width="390"/>
  <unicode hex="2077"/>
  <note>
seven.superior
</note>
  <outline>
    <contour>
      <point x="-6" y="229" type="line"/>
      <point x="76" y="237"/>
      <point x="41" y="235"/>
      <point x="86" y="295" type="curve" smooth="yes"/>
      <point x="170" y="407"/>
      <point x="258" y="504"/>
      <point x="346" y="597" type="curve" smooth="yes"/>
      <point x="433" y="688"/>
      <point x="486" y="744"/>
      <point x="506" y="767" type="curve"/>
      <point x="508" y="774" type="line"/>
      <point x="504" y="779" type="line"/>
      <point x="499" y="779"/>
      <point x="493" y="776"/>
      <point x="485" y="770" type="curve"/>
      <point x="433" y="776"/>
      <point x="374" y="784"/>
      <point x="322" y="780" type="curve" smooth="yes"/>
      <point x="288" y="778"/>
      <point x="257" y="770"/>
      <point x="234" y="754" type="curve" smooth="yes"/>
      <point x="214" y="739"/>
      <point x="189" y="705"/>
      <point x="162" y="651" type="curve"/>
      <point x="162" y="646" type="line"/>
      <point x="166" y="644" type="line"/>
      <point x="174" y="645"/>
      <point x="186" y="657"/>
      <point x="201" y="679" type="curve" smooth="yes"/>
      <point x="212" y="696"/>
      <point x="241" y="743"/>
      <point x="279" y="743" type="curve" smooth="yes"/>
      <point x="432" y="739" type="line"/>
      <point x="298" y="598" type="line" smooth="yes"/>
      <point x="163" y="455"/>
      <point x="105" y="385"/>
      <point x="38" y="305" type="curve" smooth="yes"/>
      <point x="-2" y="258"/>
      <point x="-11" y="244"/>
      <point x="-13" y="236" type="curve"/>
      <point x="-12" y="232" type="line"/>
    </contour>
  </outline>
</glyph>
<glyph name="zero.inferior" format="2">
  <advance width="474"/>
  <unicode hex="2080"/>
  <note>
zero.inferior
</note>
  <outline>
    <contour>
      <point x="212" y="-22" type="curve" smooth="yes"/>
      <point x="341" y="-22"/>
      <point x="456" y="161"/>
      <point x="501" y="286" type="curve" smooth="yes"/>
      <point x="519" y="338"/>
      <point x="536" y="399"/>
      <point x="536" y="438" type="curve" smooth="yes"/>
      <point x="536" y="509"/>
      <point x="506" y="544"/>
      <point x="447" y="544" type="curve" smooth="yes"/>
      <point x="346" y="544"/>
      <point x="222" y="419"/>
      <point x="153" y="280" type="curve" smooth="yes"/>
      <point x="118" y="211"/>
      <point x="101" y="151"/>
      <point x="101" y="103" type="curve" smooth="yes"/>
      <point x="101" y="32"/>
      <point x="136" y="-22"/>
    </contour>
    <contour>
      <point x="217" y="-3" type="curve" smooth="yes"/>
      <point x="178" y="-3"/>
      <point x="149" y="48"/>
      <point x="149" y="96" type="curve" smooth="yes"/>
      <point x="149" y="137"/>
      <point x="167" y="199"/>
      <point x="201" y="264" type="curve" smooth="yes"/>
      <point x="267" y="391"/>
      <point x="380" y="526"/>
      <point x="448" y="526" type="curve" smooth="yes"/>
      <point x="514" y="526"/>
      <point x="525" y="448"/>
      <point x="465" y="287" type="curve" smooth="yes"/>
      <point x="409" y="143"/>
      <point x="297" y="-3"/>
    </contour>
  </outline>
</glyph>
<glyph name="infinity" format="2">
  <advance width="877"/>
  <unicode hex="221E"/>
  <note>
infinity
</note>
  <outline>
    <contour>
      <point x="745" y="307" type="curve" smooth="yes"/>
      <point x="833" y="307"/>
      <point x="905" y="388"/>
      <point x="905" y="468" type="curve" smooth="yes"/>
      <point x="905" y="549"/>
      <point x="834" y="609"/>
      <point x="741" y="609" type="curve" smooth="yes"/>
      <point x="684" y="609"/>
      <point x="645" y="584"/>
      <point x="563" y="493" type="curve"/>
      <point x="518" y="559"/>
      <point x="441" y="604"/>
      <point x="348" y="604" type="curve" smooth="yes"/>
      <point x="255" y="604"/>
      <point x="189" y="541"/>
      <point x="189" y="460" type="curve" smooth="yes"/>
      <point x="189" y="378"/>
      <point x="248" y="316"/>
      <point x="335" y="316" type="curve" smooth="yes"/>
      <point x="354" y="316"/>
      <point x="372" y="320"/>
      <point x="390" y="326" type="curve" smooth="yes"/>
      <point x="421" y="337"/>
      <point x="465" y="373"/>
      <point x="523" y="433" type="curve"/>
      <point x="571" y="367"/>
      <point x="658" y="307"/>
    </contour>
    <contour>
      <point x="337" y="361" type="curve" smooth="yes"/>
      <point x="270" y="361"/>
      <point x="211" y="393"/>
      <point x="211" y="452" type="curve" smooth="yes"/>
      <point x="211" y="511"/>
      <point x="255" y="560"/>
      <point x="328" y="560" type="curve" smooth="yes"/>
      <point x="401" y="560"/>
      <point x="472" y="508"/>
      <point x="515" y="445" type="curve"/>
      <point x="453" y="388"/>
      <point x="393" y="361"/>
    </contour>
    <contour>
      <point x="753" y="352" type="curve" smooth="yes"/>
      <point x="713" y="352"/>
      <point x="673" y="368"/>
      <point x="635" y="400" type="curve" smooth="yes"/>
      <point x="617" y="414"/>
      <point x="595" y="441"/>
      <point x="570" y="484" type="curve"/>
      <point x="577" y="495" type="line" smooth="yes"/>
      <point x="581" y="500"/>
      <point x="583" y="504"/>
      <point x="585" y="506" type="curve" smooth="yes"/>
      <point x="626" y="550"/>
      <point x="674" y="572"/>
      <point x="729" y="572" type="curve" smooth="yes"/>
      <point x="810" y="572"/>
      <point x="887" y="525"/>
      <point x="887" y="462" type="curve" smooth="yes"/>
      <point x="887" y="399"/>
      <point x="833" y="352"/>
    </contour>
  </outline>
</glyph>
<glyph name="notequal" format="2">
  <advance width="458"/>
  <unicode hex="2260"/>
  <note>
notequal
</note>
  <outline>
    <contour>
      <point x="121" y="152" type="curve" smooth="yes"/>
      <point x="133" y="152"/>
      <point x="144" y="159"/>
      <point x="155" y="174" type="curve" smooth="yes"/>
      <point x="214" y="251" type="line"/>
      <point x="296" y="260"/>
      <point x="375" y="264"/>
      <point x="449" y="264" type="curve"/>
      <point x="464" y="266"/>
      <point x="473" y="273"/>
      <point x="475" y="285" type="curve"/>
      <point x="470" y="297"/>
      <point x="460" y="303"/>
      <point x="443" y="305" type="curve" smooth="yes"/>
      <point x="259" y="309" type="line"/>
      <point x="341" y="411" type="line"/>
      <point x="441" y="415" type="line" smooth="yes"/>
      <point x="463" y="415"/>
      <point x="475" y="420"/>
      <point x="475" y="429" type="curve" smooth="yes"/>
      <point x="475" y="435" type="line"/>
      <point x="470" y="448"/>
      <point x="460" y="455"/>
      <point x="443" y="455" type="curve" smooth="yes"/>
      <point x="376" y="456" type="line"/>
      <point x="400" y="488"/>
      <point x="416" y="510"/>
      <point x="424" y="522" type="curve" smooth="yes"/>
      <point x="431" y="533"/>
      <point x="430" y="539"/>
      <point x="419" y="539" type="curve" smooth="yes"/>
      <point x="406" y="539"/>
      <point x="395" y="531"/>
      <point x="385" y="518" type="curve" smooth="yes"/>
      <point x="340" y="458" type="line"/>
      <point x="107" y="461" type="line" smooth="yes"/>
      <point x="90" y="461"/>
      <point x="82" y="450"/>
      <point x="82" y="429" type="curve" smooth="yes"/>
      <point x="82" y="413"/>
      <point x="93" y="387"/>
      <point x="107" y="389" type="curve" smooth="yes"/>
      <point x="215" y="401"/>
      <point x="280" y="407"/>
      <point x="302" y="408" type="curve"/>
      <point x="221" y="309" type="line"/>
      <point x="189" y="310"/>
      <point x="151" y="311"/>
      <point x="107" y="311" type="curve" smooth="yes"/>
      <point x="90" y="311"/>
      <point x="82" y="300"/>
      <point x="82" y="279" type="curve" smooth="yes"/>
      <point x="82" y="263"/>
      <point x="93" y="237"/>
      <point x="107" y="239" type="curve" smooth="yes"/>
      <point x="170" y="246" type="line"/>
      <point x="112" y="170" type="line" smooth="yes"/>
      <point x="103" y="158"/>
      <point x="106" y="152"/>
    </contour>
  </outline>
</glyph>
<glyph name="lessequal" format="2">
  <advance width="385"/>
  <unicode hex="2264"/>
  <note>
lessequal
</note>
  <outline>
    <contour>
      <point x="386" y="111" type="curve" smooth="yes"/>
      <point x="392" y="111"/>
      <point x="395" y="114"/>
      <point x="395" y="121" type="curve" smooth="yes"/>
      <point x="395" y="128"/>
      <point x="389" y="138"/>
      <point x="376" y="151" type="curve" smooth="yes"/>
      <point x="220" y="303" type="line"/>
      <point x="316" y="409" type="line" smooth="yes"/>
      <point x="344" y="439"/>
      <point x="362" y="460"/>
      <point x="371" y="472" type="curve" smooth="yes"/>
      <point x="379" y="483"/>
      <point x="383" y="495"/>
      <point x="383" y="508" type="curve" smooth="yes"/>
      <point x="383" y="520"/>
      <point x="382" y="526"/>
      <point x="380" y="526" type="curve" smooth="yes"/>
      <point x="377" y="526"/>
      <point x="342" y="495"/>
      <point x="273" y="432" type="curve" smooth="yes"/>
      <point x="204" y="369"/>
      <point x="166" y="333"/>
      <point x="158" y="325" type="curve" smooth="yes"/>
      <point x="150" y="316"/>
      <point x="146" y="303"/>
      <point x="146" y="285" type="curve" smooth="yes"/>
      <point x="146" y="267"/>
      <point x="149" y="255"/>
      <point x="155" y="250" type="curve" smooth="yes"/>
      <point x="189" y="224"/>
      <point x="370" y="111"/>
    </contour>
    <contour>
      <point x="103" y="15" type="line"/>
      <point x="388" y="15" type="line"/>
      <point x="391" y="16" type="line"/>
      <point x="391" y="48" type="line"/>
      <point x="388" y="49" type="line"/>
      <point x="103" y="49" type="line"/>
      <point x="100" y="48" type="line"/>
      <point x="100" y="16" type="line"/>
    </contour>
  </outline>
</glyph>
<glyph name="greaterequal" format="2">
  <advance width="387"/>
  <unicode hex="2265"/>
  <note>
greaterequal
</note>
  <outline>
    <contour>
      <point x="156" y="120" type="curve" smooth="yes"/>
      <point x="165" y="107"/>
      <point x="192" y="119"/>
      <point x="277" y="172" type="curve" smooth="yes"/>
      <point x="343" y="213"/>
      <point x="406" y="266"/>
      <point x="406" y="284" type="curve" smooth="yes"/>
      <point x="406" y="306"/>
      <point x="357" y="357"/>
      <point x="321" y="391" type="curve" smooth="yes"/>
      <point x="177" y="525" type="line" smooth="yes"/>
      <point x="165" y="536"/>
      <point x="163" y="494"/>
      <point x="177" y="478" type="curve" smooth="yes"/>
      <point x="331" y="303" type="line"/>
      <point x="177" y="151" type="line" smooth="yes"/>
      <point x="165" y="139"/>
      <point x="152" y="126"/>
    </contour>
    <contour>
      <point x="103" y="15" type="line"/>
      <point x="388" y="15" type="line"/>
      <point x="391" y="16" type="line"/>
      <point x="391" y="48" type="line"/>
      <point x="388" y="49" type="line"/>
      <point x="103" y="49" type="line"/>
      <point x="100" y="48" type="line"/>
      <point x="100" y="16" type="line"/>
    </contour>
  </outline>
</glyph>
<glyph name="fl" format="2">
  <advance width="532"/>
  <unicode hex="FB02"/>
  <note>
fl
</note>
  <outline>
    <contour>
      <point x="365" y="226" type="line"/>
      <point x="375" y="260" type="line"/>
      <point x="288" y="262" type="line" smooth="yes"/>
      <point x="247" y="263"/>
      <point x="216" y="244"/>
      <point x="198" y="224" type="curve"/>
      <point x="195" y="229"/>
      <point x="191" y="233"/>
      <point x="186" y="236" type="curve"/>
      <point x="240" y="354"/>
      <point x="308" y="504"/>
      <point x="393" y="696" type="curve" smooth="yes"/>
      <point x="415" y="745"/>
      <point x="445" y="800"/>
      <point x="475" y="829" type="curve"/>
      <point x="444" y="819"/>
      <point x="426" y="829"/>
      <point x="411" y="820" type="curve" smooth="yes"/>
      <point x="390" y="808"/>
      <point x="382" y="785"/>
      <point x="365" y="755" type="curve" smooth="yes"/>
      <point x="359" y="745"/>
      <point x="351" y="727"/>
      <point x="341" y="704" type="curve" smooth="yes"/>
      <point x="295" y="599"/>
      <point x="209" y="381"/>
      <point x="148" y="232" type="curve"/>
      <point x="124" y="218"/>
      <point x="102" y="185"/>
      <point x="102" y="160" type="curve" smooth="yes"/>
      <point x="102" y="151"/>
      <point x="105" y="144"/>
      <point x="110" y="140" type="curve"/>
      <point x="100" y="118" type="line" smooth="yes"/>
      <point x="-4" y="-110"/>
      <point x="-10" y="-180"/>
      <point x="-10" y="-222" type="curve" smooth="yes"/>
      <point x="-10" y="-293"/>
      <point x="40" y="-338"/>
      <point x="114" y="-338" type="curve" smooth="yes"/>
      <point x="211" y="-338"/>
      <point x="244" y="-299"/>
      <point x="251" y="-184" type="curve" smooth="yes"/>
      <point x="256" y="-94"/>
      <point x="234" y="119"/>
      <point x="212" y="199" type="curve"/>
      <point x="205" y="197" type="line"/>
      <point x="224" y="209"/>
      <point x="251" y="228"/>
      <point x="274" y="228" type="curve" smooth="yes"/>
    </contour>
    <contour>
      <point x="26" y="-209" type="curve" smooth="yes"/>
      <point x="26" y="-135"/>
      <point x="61" y="-44"/>
      <point x="139" y="132" type="curve"/>
      <point x="151" y="133"/>
      <point x="163" y="137"/>
      <point x="175" y="145" type="curve"/>
      <point x="179" y="52"/>
      <point x="228" y="-101"/>
      <point x="221" y="-201" type="curve" smooth="yes"/>
      <point x="216" y="-276"/>
      <point x="162" y="-316"/>
      <point x="122" y="-316" type="curve" smooth="yes"/>
      <point x="86" y="-316"/>
      <point x="26" y="-288"/>
    </contour>
    <component base="l" xOffset="208"/>
  </outline>
</glyph>
<glyph name="ffi" format="2">
  <advance width="762"/>
  <unicode hex="FB03"/>
  <note>
ffi
</note>
  <outline>
    <contour>
      <point x="709" y="225" type="line"/>
      <point x="726" y="258" type="line"/>
      <point x="578" y="262" type="line" smooth="yes"/>
      <point x="537" y="263"/>
      <point x="506" y="244"/>
      <point x="488" y="224" type="curve"/>
      <point x="485" y="229"/>
      <point x="481" y="233"/>
      <point x="476" y="236" type="curve"/>
      <point x="530" y="354"/>
      <point x="598" y="504"/>
      <point x="683" y="696" type="curve" smooth="yes"/>
      <point x="705" y="745"/>
      <point x="735" y="800"/>
      <point x="765" y="829" type="curve"/>
      <point x="734" y="819"/>
      <point x="716" y="829"/>
      <point x="701" y="820" type="curve" smooth="yes"/>
      <point x="680" y="808"/>
      <point x="672" y="785"/>
      <point x="655" y="755" type="curve" smooth="yes"/>
      <point x="649" y="745"/>
      <point x="641" y="727"/>
      <point x="631" y="704" type="curve" smooth="yes"/>
      <point x="585" y="599"/>
      <point x="499" y="381"/>
      <point x="438" y="232" type="curve"/>
      <point x="414" y="218"/>
      <point x="392" y="185"/>
      <point x="392" y="160" type="curve" smooth="yes"/>
      <point x="392" y="151"/>
      <point x="395" y="144"/>
      <point x="400" y="140" type="curve"/>
      <point x="390" y="118" type="line" smooth="yes"/>
      <point x="286" y="-110"/>
      <point x="280" y="-180"/>
      <point x="280" y="-222" type="curve" smooth="yes"/>
      <point x="280" y="-293"/>
      <point x="330" y="-338"/>
      <point x="404" y="-338" type="curve" smooth="yes"/>
      <point x="501" y="-338"/>
      <point x="534" y="-299"/>
      <point x="541" y="-184" type="curve" smooth="yes"/>
      <point x="546" y="-94"/>
      <point x="524" y="119"/>
      <point x="502" y="199" type="curve"/>
      <point x="495" y="197" type="line"/>
      <point x="514" y="209"/>
      <point x="541" y="228"/>
      <point x="564" y="228" type="curve" smooth="yes"/>
    </contour>
    <contour>
      <point x="316" y="-209" type="curve" smooth="yes"/>
      <point x="316" y="-135"/>
      <point x="351" y="-44"/>
      <point x="429" y="132" type="curve"/>
      <point x="441" y="133"/>
      <point x="453" y="137"/>
      <point x="465" y="145" type="curve"/>
      <point x="469" y="52"/>
      <point x="518" y="-101"/>
      <point x="511" y="-201" type="curve" smooth="yes"/>
      <point x="506" y="-276"/>
      <point x="452" y="-316"/>
      <point x="412" y="-316" type="curve" smooth="yes"/>
      <point x="376" y="-316"/>
      <point x="316" y="-288"/>
    </contour>
    <component base="f"/>
    <component base="i" xOffset="514"/>
  </outline>
</glyph>
<glyph name="_number.bars" format="2">
  <advance width="454"/>
  <outline>
    <contour>
      <point x="153" y="837" type="line"/>
      <point x="153" y="811" type="line"/>
      <point x="731" y="811" type="line"/>
      <point x="731" y="837" type="line"/>
    </contour>
    <contour>
      <point x="-119" y="-138" type="line"/>
      <point x="-119" y="-164" type="line"/>
      <point x="579" y="-164" type="line"/>
      <point x="579" y="-138" type="line"/>
    </contour>
  </outline>
</glyph>
<glyph name="_part.bar.bigger" format="2">
  <advance width="1381"/>
  <outline>
    <contour>
      <point x="1367" y="322" type="curve" smooth="yes"/>
      <point x="1367" y="302"/>
      <point x="1410" y="341"/>
      <point x="1458" y="339" type="curve" smooth="yes"/>
      <point x="1510" y="337" type="line" smooth="yes"/>
      <point x="1707" y="329"/>
      <point x="1820" y="324"/>
      <point x="1849" y="324" type="curve" smooth="yes"/>
      <point x="1907" y="324" type="line" smooth="yes"/>
      <point x="1950" y="324"/>
      <point x="2019" y="352"/>
      <point x="2004" y="371" type="curve" smooth="yes"/>
      <point x="1992" y="386"/>
      <point x="1944" y="356"/>
      <point x="1916" y="356" type="curve" smooth="yes"/>
      <point x="1858" y="355" type="line" smooth="yes"/>
      <point x="1784" y="354"/>
      <point x="1627" y="358"/>
      <point x="1552" y="364" type="curve" smooth="yes"/>
      <point x="1512" y="367"/>
      <point x="1475" y="370"/>
      <point x="1433" y="372" type="curve" smooth="yes"/>
      <point x="1409" y="373"/>
      <point x="1367" y="345"/>
    </contour>
  </outline>
</glyph>
<glyph name="_part.curvy.left" format="2">
  <advance width="1153"/>
  <outline>
    <contour>
      <point x="2247" y="167"/>
      <point x="2319" y="372" type="curve" smooth="yes"/>
      <point x="2400" y="603"/>
      <point x="2430" y="663"/>
      <point x="2448" y="698" type="curve"/>
      <point x="2511" y="708"/>
      <point x="2586" y="757"/>
      <point x="2557" y="795" type="curve" smooth="yes"/>
      <point x="2541" y="816"/>
      <point x="2497" y="807"/>
      <point x="2466" y="767" type="curve" smooth="yes"/>
      <point x="2451" y="748"/>
      <point x="2441" y="733"/>
      <point x="2432" y="720" type="curve"/>
      <point x="2300" y="706"/>
      <point x="2272" y="713"/>
      <point x="2141" y="695" type="curve" smooth="yes"/>
      <point x="2015" y="677"/>
      <point x="1881" y="614"/>
      <point x="1850" y="488" type="curve" smooth="yes"/>
      <point x="1826" y="393"/>
      <point x="1856" y="312"/>
      <point x="1934" y="278" type="curve" smooth="yes"/>
      <point x="1998" y="251"/>
      <point x="2088" y="270"/>
      <point x="2138" y="359" type="curve" smooth="yes"/>
      <point x="2165" y="407"/>
      <point x="2166" y="488"/>
      <point x="2134" y="488" type="curve" smooth="yes"/>
      <point x="2120" y="488"/>
      <point x="2113" y="449"/>
      <point x="2137" y="449" type="curve" smooth="yes"/>
      <point x="2151" y="449"/>
      <point x="2145" y="413"/>
      <point x="2130" y="384" type="curve" smooth="yes"/>
      <point x="2096" y="319"/>
      <point x="2056" y="286"/>
      <point x="1999" y="286" type="curve" smooth="yes"/>
      <point x="1913" y="286"/>
      <point x="1891" y="384"/>
      <point x="1914" y="458" type="curve" smooth="yes"/>
      <point x="1946" y="561"/>
      <point x="2008" y="619"/>
      <point x="2119" y="656" type="curve" smooth="yes"/>
      <point x="2196" y="681"/>
      <point x="2367" y="690"/>
      <point x="2418" y="696" type="curve"/>
      <point x="2363" y="587"/>
      <point x="2314" y="479"/>
      <point x="2272" y="372" type="curve" smooth="yes"/>
      <point x="2205" y="202"/>
      <point x="2083" y="36"/>
      <point x="1942" y="-51" type="curve" smooth="yes"/>
      <point x="1865" y="-98"/>
      <point x="1783" y="-108"/>
      <point x="1704" y="-108" type="curve" smooth="yes"/>
      <point x="1563" y="-108"/>
      <point x="1427" y="-41"/>
      <point x="1424" y="103" type="curve" smooth="yes"/>
      <point x="1422" y="189"/>
      <point x="1472" y="274"/>
      <point x="1528" y="298" type="curve" smooth="yes"/>
      <point x="1544" y="304"/>
      <point x="1540" y="316"/>
      <point x="1526" y="312" type="curve" smooth="yes"/>
      <point x="1445" y="287"/>
      <point x="1392" y="195"/>
      <point x="1392" y="99" type="curve" smooth="yes"/>
      <point x="1392" y="-88"/>
      <point x="1578" y="-171"/>
      <point x="1729" y="-171" type="curve" smooth="yes"/>
      <point x="1813" y="-171"/>
      <point x="1893" y="-150"/>
      <point x="1969" y="-108" type="curve" smooth="yes"/>
      <point x="2133" y="-15"/>
    </contour>
    <contour>
      <point x="2464" y="724" type="curve"/>
      <point x="2489" y="757"/>
      <point x="2518" y="794"/>
      <point x="2532" y="780" type="curve" smooth="yes"/>
      <point x="2554" y="758"/>
      <point x="2496" y="735"/>
    </contour>
  </outline>
</glyph>
<glyph name="_smart.belt.cap" format="2">
  <anchor x="3" y="293" name="_belt.cap"/>
  <outline>
    <contour>
      <point x="-317" y="257" type="line"/>
      <point x="272" y="257" type="line"/>
      <point x="272" y="294" type="line"/>
      <point x="-317" y="294" type="line"/>
    </contour>
  </outline>
</glyph>
<glyph name="_smart.cha.cap" format="2">
  <anchor x="35" y="294" name="_cha.cap"/>
  <outline>
    <contour>
      <point x="-247" y="328" type="curve" smooth="yes"/>
      <point x="-223" y="304"/>
      <point x="-177" y="295"/>
      <point x="-139" y="333" type="curve" smooth="yes"/>
      <point x="-127" y="345"/>
      <point x="-121" y="376"/>
      <point x="-145" y="400" type="curve" smooth="yes"/>
      <point x="-166" y="421"/>
      <point x="-213" y="438"/>
      <point x="-253" y="396" type="curve" smooth="yes"/>
      <point x="-265" y="385"/>
      <point x="-271" y="352"/>
    </contour>
    <contour>
      <point x="309" y="345" type="curve" smooth="yes"/>
      <point x="330" y="324"/>
      <point x="377" y="307"/>
      <point x="417" y="349" type="curve" smooth="yes"/>
      <point x="429" y="360"/>
      <point x="435" y="393"/>
      <point x="411" y="417" type="curve" smooth="yes"/>
      <point x="387" y="441"/>
      <point x="344" y="445"/>
      <point x="317" y="424" type="curve" smooth="yes"/>
      <point x="288" y="405"/>
      <point x="285" y="369"/>
    </contour>
  </outline>
</glyph>
<glyph name="_smart.he.acute" format="2">
  <anchor x="4" y="470" name="_he.acute"/>
  <outline>
    <contour>
      <point x="42" y="417" type="curve" smooth="yes"/>
      <point x="45" y="423"/>
      <point x="11" y="618"/>
      <point x="-2" y="629" type="curve" smooth="yes"/>
      <point x="-14" y="636"/>
      <point x="-24" y="636"/>
      <point x="-35" y="624" type="curve" smooth="yes"/>
      <point x="-45" y="611"/>
      <point x="-55" y="588"/>
      <point x="-43" y="561" type="curve" smooth="yes"/>
      <point x="-13" y="485" type="line" smooth="yes"/>
      <point x="4" y="438"/>
      <point x="24" y="419"/>
      <point x="28" y="417" type="curve" smooth="yes"/>
      <point x="33" y="410"/>
      <point x="38" y="412"/>
    </contour>
  </outline>
</glyph>
<glyph name="_smart.he" format="2">
  <anchor x="18" y="591" name="_he"/>
  <outline>
    <contour>
      <point x="-45" y="539" type="line"/>
      <point x="121" y="539" type="line"/>
      <point x="121" y="583" type="line"/>
      <point x="-45" y="583" type="line"/>
    </contour>
  </outline>
</glyph>
<glyph name="_smart.he.left" format="2">
  <anchor x="24" y="625" name="_he.left"/>
  <outline>
    <contour>
      <point x="-98" y="588" type="curve" smooth="yes"/>
      <point x="-98" y="532"/>
      <point x="9" y="561"/>
      <point x="9" y="625" type="curve" smooth="yes"/>
      <point x="9" y="657"/>
      <point x="-3" y="672"/>
      <point x="-27" y="672" type="curve" smooth="yes"/>
      <point x="-59" y="672"/>
      <point x="-98" y="622"/>
    </contour>
  </outline>
</glyph>
<glyph name="_smart.nose.ext" format="2">
  <anchor x="2" y="531" name="_nose.ext"/>
  <outline>
    <contour>
      <point x="0" y="402" type="line"/>
      <point x="25" y="529" type="line"/>
      <point x="-6" y="532" type="line"/>
      <point x="-31" y="405" type="line"/>
    </contour>
  </outline>
</glyph>
<glyph name="_smart.raa.helper" format="2">
  <anchor x="33" y="53" name="_raa.helper"/>
  <outline>
    <contour>
      <point x="-107" y="73" type="line"/>
      <point x="-68" y="70" type="line"/>
      <point x="-57" y="126" type="line" smooth="yes"/>
      <point x="-44" y="190"/>
      <point x="-2" y="231"/>
      <point x="39" y="231" type="curve"/>
      <point x="39" y="261" type="line"/>
      <point x="-22" y="261"/>
      <point x="-75" y="220"/>
      <point x="-89" y="155" type="curve" smooth="yes"/>
    </contour>
  </outline>
</glyph>
<glyph name="_smart.ye" format="2">
  <advance width="242"/>
  <anchor x="22" y="25" name="_ye"/>
  <outline>
    <contour>
      <point x="116" y="-115" type="curve" smooth="yes"/>
      <point x="125" y="-113"/>
      <point x="127" y="-107"/>
      <point x="130" y="-103" type="curve" smooth="yes"/>
      <point x="244" y="45" type="line"/>
      <point x="253" y="60"/>
      <point x="220" y="49"/>
      <point x="211" y="40" type="curve" smooth="yes"/>
      <point x="95" y="-73" type="line"/>
      <point x="-135" y="16" type="line" smooth="yes"/>
      <point x="-185" y="35"/>
      <point x="-194" y="21"/>
      <point x="-173" y="11" type="curve" smooth="yes"/>
      <point x="73" y="-112" type="line" smooth="yes"/>
      <point x="89" y="-120"/>
      <point x="107" y="-115"/>
    </contour>
  </outline>
</glyph>
<glyph name="ga.base.001" format="2">
  <advance width="411"/>
  <anchor x="321" y="19" name="gwa"/>
  <anchor x="397" y="-23" name="haa"/>
  <anchor x="221" y="0" name="haa.acute"/>
  <anchor x="329" y="632" name="hat"/>
  <anchor x="318" y="356" name="he"/>
  <anchor x="343" y="-192" name="hee"/>
  <anchor x="218" y="3" name="hi"/>
  <anchor x="268" y="304" name="ho.ring"/>
  <anchor x="461" y="278" name="hu"/>
  <anchor x="421" y="541" name="ne"/>
  <anchor x="320" y="470" name="neck.upright"/>
  <anchor x="511" y="22" name="raa.helper"/>
  <anchor x="480" y="54" name="ri.helper"/>
  <anchor x="356" y="526" name="ring"/>
  <anchor x="307" y="504" name="top"/>
  <outline>
    <contour>
      <point x="218" y="0" type="curve"/>
      <point x="265" y="-2" type="line"/>
      <point x="267" y="13"/>
      <point x="332" y="120"/>
      <point x="423" y="293" type="curve" smooth="yes"/>
      <point x="462" y="367"/>
      <point x="471" y="391"/>
      <point x="469" y="418" type="curve" smooth="yes"/>
      <point x="457" y="568"/>
      <point x="222" y="564"/>
      <point x="123" y="451" type="curve" smooth="yes"/>
      <point x="106" y="431"/>
      <point x="128" y="419"/>
      <point x="147" y="439" type="curve" smooth="yes"/>
      <point x="222" y="522"/>
      <point x="406" y="528"/>
      <point x="416" y="424" type="curve" smooth="yes"/>
      <point x="418" y="399"/>
      <point x="406" y="373"/>
      <point x="379" y="316" type="curve" smooth="yes"/>
      <point x="294" y="138"/>
      <point x="223" y="20"/>
    </contour>
  </outline>
</glyph>
<glyph name="ga.base.002" format="2">
  <advance width="485"/>
  <anchor x="361" y="-41" name="gwa"/>
  <anchor x="397" y="-23" name="haa"/>
  <anchor x="325" y="-13" name="haa.acute"/>
  <anchor x="329" y="632" name="hat"/>
  <anchor x="279" y="354" name="he"/>
  <anchor x="343" y="-192" name="hee"/>
  <anchor x="270" y="-75" name="hi"/>
  <anchor x="268" y="304" name="ho.ring"/>
  <anchor x="437" y="274" name="hu"/>
  <anchor x="421" y="541" name="ne"/>
  <anchor x="320" y="470" name="neck.upright"/>
  <anchor x="511" y="22" name="raa.helper"/>
  <anchor x="480" y="54" name="ri.helper"/>
  <anchor x="307" y="504" name="top"/>
  <outline>
    <contour>
      <point x="179" y="481" type="line"/>
      <point x="402" y="481" type="line" smooth="yes"/>
      <point x="412" y="481"/>
      <point x="414" y="462"/>
      <point x="409" y="451" type="curve" smooth="yes"/>
      <point x="273" y="175" type="line" smooth="yes"/>
      <point x="257" y="143"/>
      <point x="251" y="113"/>
      <point x="253" y="87" type="curve" smooth="yes"/>
      <point x="257" y="27"/>
      <point x="302" y="-14"/>
      <point x="365" y="-14" type="curve" smooth="yes"/>
      <point x="440" y="-14"/>
      <point x="492" y="40"/>
      <point x="539" y="98" type="curve" smooth="yes"/>
      <point x="567" y="132"/>
      <point x="617" y="231"/>
      <point x="631" y="275" type="curve" smooth="yes"/>
      <point x="636" y="291"/>
      <point x="618" y="297"/>
      <point x="608" y="275" type="curve" smooth="yes"/>
      <point x="539" y="123"/>
      <point x="467" y="17"/>
      <point x="395" y="17" type="curve" smooth="yes"/>
      <point x="319" y="17"/>
      <point x="283" y="80"/>
      <point x="310" y="135" type="curve" smooth="yes"/>
      <point x="462" y="447" type="line" smooth="yes"/>
      <point x="480" y="484"/>
      <point x="482" y="516"/>
      <point x="436" y="516" type="curve" smooth="yes"/>
      <point x="179" y="516" type="line"/>
    </contour>
  </outline>
</glyph>
<glyph name="ha.base.001" format="2">
  <advance width="599"/>
  <anchor x="355" y="-3" name="haa"/>
  <anchor x="303" y="328" name="he"/>
  <anchor x="368" y="-200" name="hee"/>
  <anchor x="181" y="-41" name="hi"/>
  <anchor x="543" y="398" name="ho.ring"/>
  <anchor x="543" y="277" name="hu"/>
  <anchor x="369" y="-6" name="hwa"/>
  <anchor x="492" y="519" name="top"/>
  <outline>
    <contour>
      <point x="219" y="-5" type="curve" smooth="yes"/>
      <point x="321" y="-5"/>
      <point x="375" y="62"/>
      <point x="451" y="187" type="curve"/>
      <point x="442" y="159"/>
      <point x="389" y="54"/>
      <point x="386" y="39" type="curve" smooth="yes"/>
      <point x="383" y="22"/>
      <point x="394" y="19"/>
      <point x="418" y="0" type="curve"/>
      <point x="422" y="48"/>
      <point x="535" y="272"/>
      <point x="579" y="361" type="curve" smooth="yes"/>
      <point x="623" y="453"/>
      <point x="636" y="476"/>
      <point x="671" y="510" type="curve"/>
      <point x="603" y="510" type="line" smooth="yes"/>
      <point x="593" y="510"/>
      <point x="541" y="401"/>
      <point x="524" y="368" type="curve" smooth="yes"/>
      <point x="453" y="229"/>
      <point x="394" y="137"/>
      <point x="351" y="87" type="curve" smooth="yes"/>
      <point x="317" y="47"/>
      <point x="263" y="27"/>
      <point x="241" y="27" type="curve" smooth="yes"/>
      <point x="213" y="27"/>
      <point x="167" y="43"/>
      <point x="167" y="87" type="curve" smooth="yes"/>
      <point x="167" y="126"/>
      <point x="196" y="198"/>
      <point x="229" y="274" type="curve" smooth="yes"/>
      <point x="281" y="394"/>
      <point x="332" y="485"/>
      <point x="376" y="510" type="curve"/>
      <point x="331" y="510" type="line" smooth="yes"/>
      <point x="302" y="510"/>
      <point x="286" y="499"/>
      <point x="273" y="478" type="curve" smooth="yes"/>
      <point x="251" y="444"/>
      <point x="211" y="367"/>
      <point x="177" y="284" type="curve" smooth="yes"/>
      <point x="143" y="201"/>
      <point x="120" y="118"/>
      <point x="120" y="81" type="curve" smooth="yes"/>
      <point x="120" y="54"/>
      <point x="138" y="-5"/>
    </contour>
  </outline>
</glyph>
<glyph name="ne-ethiopic.etcp" format="2">
  <advance width="645"/>
  <anchor x="452" y="-62" name="gwa"/>
  <anchor x="379" y="-66" name="haa.acute"/>
  <anchor x="526" y="840" name="hat"/>
  <anchor x="454" y="512" name="he"/>
  <anchor x="443" y="-244" name="hee"/>
  <anchor x="413" y="-80" name="hi"/>
  <anchor x="253" y="368" name="ho.ring"/>
  <anchor x="565" y="398" name="hu"/>
  <anchor x="445" y="671" name="neck"/>
  <outline>
    <contour>
      <point x="421" y="357" type="line"/>
      <point x="475" y="387" type="line"/>
      <point x="475" y="528" type="line"/>
      <point x="471" y="547"/>
      <point x="460" y="557"/>
      <point x="442" y="557" type="curve" smooth="yes"/>
      <point x="413" y="557"/>
      <point x="335" y="538"/>
      <point x="335" y="508" type="curve" smooth="yes"/>
      <point x="335" y="479"/>
      <point x="382" y="466"/>
      <point x="421" y="472" type="curve"/>
    </contour>
    <component base="ga.base.cap"/>
  </outline>
</glyph>
<glyph name="oPh.base" format="2">
  <advance width="509"/>
  <anchor x="357" y="303" name="belt"/>
  <anchor x="238" y="-36" name="haa"/>
  <anchor x="213" y="-57" name="haa.acute"/>
  <anchor x="387" y="576" name="he.acute"/>
  <anchor x="253" y="-209" name="hee"/>
  <anchor x="134" y="-40" name="hi"/>
  <anchor x="525" y="265" name="hu"/>
  <anchor x="176" y="-35" name="hwa"/>
  <anchor x="467" y="507" name="neck"/>
  <anchor x="412" y="512" name="top"/>
  <outline>
    <contour>
      <point x="225" y="-13" type="curve" smooth="yes"/>
      <point x="265" y="-13"/>
      <point x="309" y="4"/>
      <point x="356" y="40" type="curve"/>
      <point x="379" y="13"/>
      <point x="412" y="0"/>
      <point x="454" y="0" type="curve" smooth="yes"/>
      <point x="513" y="0"/>
      <point x="554" y="41"/>
      <point x="592" y="95" type="curve" smooth="yes"/>
      <point x="634" y="155"/>
      <point x="666" y="220"/>
      <point x="693" y="275" type="curve" smooth="yes"/>
      <point x="699" y="287"/>
      <point x="683" y="304"/>
      <point x="673" y="286" type="curve" smooth="yes"/>
      <point x="665" y="270"/>
      <point x="657" y="253"/>
      <point x="629" y="203" type="curve" smooth="yes"/>
      <point x="588" y="126"/>
      <point x="565" y="99"/>
      <point x="535" y="67" type="curve" smooth="yes"/>
      <point x="510" y="40"/>
      <point x="485" y="25"/>
      <point x="457" y="25" type="curve" smooth="yes"/>
      <point x="422" y="25"/>
      <point x="398" y="38"/>
      <point x="385" y="64" type="curve"/>
      <point x="442" y="117"/>
      <point x="485" y="178"/>
      <point x="513" y="245" type="curve" smooth="yes"/>
      <point x="536" y="294"/>
      <point x="547" y="340"/>
      <point x="547" y="383" type="curve" smooth="yes"/>
      <point x="547" y="475"/>
      <point x="510" y="523"/>
      <point x="436" y="523" type="curve" smooth="yes"/>
      <point x="336" y="523"/>
      <point x="209" y="408"/>
      <point x="148" y="266" type="curve" smooth="yes"/>
      <point x="125" y="217"/>
      <point x="114" y="171"/>
      <point x="114" y="129" type="curve" smooth="yes"/>
      <point x="114" y="35"/>
      <point x="151" y="-13"/>
    </contour>
    <contour>
      <point x="253" y="19" type="curve" smooth="yes"/>
      <point x="207" y="19"/>
      <point x="170" y="39"/>
      <point x="163" y="90" type="curve" smooth="yes"/>
      <point x="156" y="142"/>
      <point x="174" y="197"/>
      <point x="210" y="270" type="curve" smooth="yes"/>
      <point x="269" y="397"/>
      <point x="382" y="482"/>
      <point x="448" y="482" type="curve" smooth="yes"/>
      <point x="486" y="482"/>
      <point x="510" y="451"/>
      <point x="510" y="401" type="curve" smooth="yes"/>
      <point x="510" y="350"/>
      <point x="499" y="300"/>
      <point x="473" y="248" type="curve" smooth="yes"/>
      <point x="451.395" y="200.862"/>
      <point x="409.537" y="123.826"/>
      <point x="379.628" y="92.662" type="curve"/>
      <point x="380" y="98" type="line" smooth="yes"/>
      <point x="381" y="118"/>
      <point x="372" y="129"/>
      <point x="356" y="129" type="curve" smooth="yes"/>
      <point x="335" y="129"/>
      <point x="309" y="96"/>
      <point x="309" y="73" type="curve" smooth="yes"/>
      <point x="309" y="59.831"/>
      <point x="317.994" y="53.756"/>
      <point x="329.579" y="53.332" type="curve"/>
      <point x="301.294" y="31.175"/>
      <point x="275.523" y="19"/>
    </contour>
  </outline>
</glyph>
<glyph name="ya.base" format="2">
  <advance width="482"/>
  <anchor x="94" y="-12" name="haa"/>
  <anchor x="35" y="-67" name="haa.acute"/>
  <anchor x="468" y="318" name="he"/>
  <anchor x="406" y="540" name="he.left"/>
  <anchor x="200" y="-187" name="hee"/>
  <anchor x="152" y="-58" name="hi"/>
  <anchor x="183" y="-129" name="hu"/>
  <anchor x="155" y="16" name="ya.back"/>
  <anchor x="193" y="-92" name="ye"/>
  <outline>
    <contour>
      <point x="79" y="-50" type="line"/>
      <point x="115" y="19" type="line"/>
      <point x="149" y="1"/>
      <point x="180" y="-8"/>
      <point x="208" y="-8" type="curve" smooth="yes"/>
      <point x="237" y="-8"/>
      <point x="262" y="-5"/>
      <point x="284" y="1" type="curve" smooth="yes"/>
      <point x="410" y="40"/>
      <point x="501" y="159"/>
      <point x="540" y="275" type="curve" smooth="yes"/>
      <point x="554" y="318"/>
      <point x="562" y="361"/>
      <point x="562" y="400" type="curve" smooth="yes"/>
      <point x="562" y="465"/>
      <point x="536" y="504"/>
      <point x="487" y="517" type="curve" smooth="yes"/>
      <point x="479" y="519"/>
      <point x="472" y="520"/>
      <point x="464" y="520" type="curve" smooth="yes"/>
      <point x="437" y="520"/>
      <point x="408" y="509"/>
      <point x="379" y="481" type="curve" smooth="yes"/>
      <point x="334" y="438"/>
      <point x="296" y="390"/>
      <point x="248" y="313" type="curve" smooth="yes"/>
      <point x="218" y="265" type="line"/>
      <point x="246" y="340"/>
      <point x="266" y="455"/>
      <point x="260" y="473" type="curve" smooth="yes"/>
      <point x="256" y="485"/>
      <point x="218" y="477"/>
      <point x="200" y="494" type="curve"/>
      <point x="210" y="478"/>
      <point x="212" y="394"/>
      <point x="184" y="303" type="curve" smooth="yes"/>
      <point x="164" y="238"/>
      <point x="123" y="133"/>
      <point x="59" y="-7" type="curve"/>
    </contour>
    <contour>
      <point x="181" y="20" type="curve" smooth="yes"/>
      <point x="158" y="22"/>
      <point x="140" y="28"/>
      <point x="127" y="41" type="curve"/>
      <point x="214" y="203"/>
      <point x="280" y="317"/>
      <point x="327" y="382" type="curve" smooth="yes"/>
      <point x="373" y="447"/>
      <point x="414" y="479"/>
      <point x="449" y="479" type="curve" smooth="yes"/>
      <point x="477" y="479"/>
      <point x="513" y="466"/>
      <point x="513" y="414" type="curve" smooth="yes"/>
      <point x="513" y="334"/>
      <point x="465" y="140"/>
      <point x="299" y="42" type="curve" smooth="yes"/>
      <point x="251" y="14"/>
      <point x="204" y="18"/>
    </contour>
  </outline>
</glyph>
